<?xml version="1.0" encoding="utf-8"?>
<!-- Generator: Adobe Illustrator 17.0.1, SVG Export Plug-In . SVG Version: 6.00 Build 0)  -->
<!DOCTYPE svg PUBLIC "-//W3C//DTD SVG 1.1//EN" "http://www.w3.org/Graphics/SVG/1.1/DTD/svg11.dtd">
<svg version="1.1" id="Layer_1" xmlns="http://www.w3.org/2000/svg" xmlns:xlink="http://www.w3.org/1999/xlink" x="0px" y="0px"
	 width="37px" height="37px" viewBox="0 0 37 37" enable-background="new 0 0 37 37" xml:space="preserve">
<path fill="#5F9531" d="M13.979,23.167l-8.223-3.29v2.78l8.223,3.294V23.167z M13.979,14.628l-8.223-3.29v2.784l8.223,3.29V14.628z
	 M36.095,0.353c-0.562-0.383-1.28-0.458-1.915-0.207L18.5,6.42L2.82,0.146C2.186-0.105,1.469-0.03,0.901,0.353
	C0.339,0.735,0,1.372,0,2.056v26.312c0,0.838,0.513,1.594,1.292,1.908L17.7,36.839c0,0,0.337,0.106,0.401,0.12
	C18.232,36.987,18.367,37,18.5,37c0.134,0,0.267-0.013,0.399-0.041c0.062-0.014,0.4-0.123,0.4-0.123l16.41-6.56
	c0.779-0.315,1.29-1.07,1.29-1.908V2.056C37,1.372,36.661,0.735,36.095,0.353 M16.444,32.794L3.29,27.53V4.495l13.154,5.259V32.794z
	 M33.711,27.53l-13.156,5.263V9.754l13.156-5.259V27.53z M31.245,19.877l-8.224,3.29v2.784l8.224-3.294V19.877z M31.245,11.338
	l-8.224,3.29v2.784l8.224-3.29V11.338z"/>
</svg>
