<?xml version="1.0" encoding="utf-8"?>
<!-- Generator: Adobe Illustrator 17.1.0, SVG Export Plug-In . SVG Version: 6.00 Build 0)  -->
<!DOCTYPE svg PUBLIC "-//W3C//DTD SVG 1.1//EN" "http://www.w3.org/Graphics/SVG/1.1/DTD/svg11.dtd">
<svg version="1.1" id="Layer_1" xmlns="http://www.w3.org/2000/svg" xmlns:xlink="http://www.w3.org/1999/xlink" x="0px" y="0px"
	 viewBox="0 0 21 17" style="enable-background:new 0 0 21 17;" xml:space="preserve">
<style type="text/css">
	.Drop_x0020_Shadow{fill:none;}
	.Round_x0020_Corners_x0020_2_x0020_pt{fill:#FFFFFF;stroke:#000000;stroke-miterlimit:10;}
	.Live_x0020_Reflect_x0020_X{fill:none;}
	.Bevel_x0020_Soft{fill:url(#SVGID_1_);}
	.Dusk{fill:#FFFFFF;}
	.Foliage_GS{fill:#FFDD00;}
	.Pompadour_GS{fill-rule:evenodd;clip-rule:evenodd;fill:#44ADE2;}
	.st0{fill:#5F9640;}
</style>
<linearGradient id="SVGID_1_" gradientUnits="userSpaceOnUse" x1="0" y1="0" x2="0.7071" y2="0.7071">
	<stop  offset="0" style="stop-color:#DEDFE3"/>
	<stop  offset="0.1738" style="stop-color:#D8D9DD"/>
	<stop  offset="0.352" style="stop-color:#C9CACD"/>
	<stop  offset="0.5323" style="stop-color:#B4B5B8"/>
	<stop  offset="0.7139" style="stop-color:#989A9C"/>
	<stop  offset="0.8949" style="stop-color:#797C7E"/>
	<stop  offset="1" style="stop-color:#656B6C"/>
</linearGradient>
<g>
	<path class="st0" d="M20.667,3.213L15.76,0.103c-0.217-0.138-0.489-0.138-0.707,0L10.5,2.99L5.947,0.103
		c-0.217-0.138-0.489-0.138-0.707,0L0.333,3.213C0.126,3.345,0,3.581,0,3.836v12.439c0,0.262,0.132,0.502,0.348,0.631
		c0.215,0.129,0.48,0.126,0.692-0.009l4.553-2.886l4.553,2.886c0.217,0.138,0.489,0.138,0.706,0l4.553-2.886l4.553,2.886
		c0.109,0.069,0.232,0.104,0.353,0.104c0.117,0,0.234-0.032,0.339-0.095C20.867,16.777,21,16.537,21,16.275V3.836
		C21,3.581,20.874,3.345,20.667,3.213z M4.906,12.755l-3.533,2.239V4.246l3.533-2.238V12.755z M9.812,14.994L6.28,12.755V2.008
		l3.532,2.239V14.994z M14.719,12.755l-3.532,2.239V4.247l3.532-2.239V12.755z M19.627,14.994l-3.533-2.239V2.008l3.533,2.238
		V14.994z"/>
</g>
</svg>
