<?xml version="1.0" encoding="utf-8"?>
<!-- Generator: Adobe Illustrator 17.0.1, SVG Export Plug-In . SVG Version: 6.00 Build 0)  -->
<!DOCTYPE svg PUBLIC "-//W3C//DTD SVG 1.1//EN" "http://www.w3.org/Graphics/SVG/1.1/DTD/svg11.dtd">
<svg version="1.1" id="Layer_1" xmlns="http://www.w3.org/2000/svg" xmlns:xlink="http://www.w3.org/1999/xlink" x="0px" y="0px"
	 width="21px" height="17px" viewBox="0 0 21 17" enable-background="new 0 0 21 17" xml:space="preserve">
<g>
	<path fill="#5F9531" d="M20.667,3.213L15.76,0.103c-0.217-0.138-0.489-0.138-0.707,0L10.5,2.99L5.947,0.103
		c-0.217-0.138-0.489-0.138-0.707,0L0.333,3.213C0.127,3.344,0,3.581,0,3.836v12.439c0,0.262,0.133,0.502,0.348,0.631
		c0.215,0.129,0.48,0.126,0.692-0.009l4.554-2.886l4.553,2.886c0.218,0.138,0.489,0.138,0.707,0l4.553-2.886l4.553,2.886
		c0.109,0.069,0.232,0.104,0.354,0.104c0.116,0,0.234-0.032,0.339-0.095C20.867,16.777,21,16.537,21,16.275V3.836
		C21,3.581,20.874,3.344,20.667,3.213z M4.906,12.755l-3.533,2.239V4.246l3.533-2.238V12.755z M9.812,14.994L6.28,12.755V2.007
		l3.533,2.239V14.994z M14.719,12.755l-3.532,2.239V4.247l3.532-2.239V12.755z M19.627,14.994l-3.533-2.239V2.007l3.533,2.238
		V14.994z"/>
</g>
</svg>
