<?xml version="1.0" encoding="utf-8"?>
<!-- Generator: Adobe Illustrator 17.1.0, SVG Export Plug-In . SVG Version: 6.00 Build 0)  -->
<!DOCTYPE svg PUBLIC "-//W3C//DTD SVG 1.1//EN" "http://www.w3.org/Graphics/SVG/1.1/DTD/svg11.dtd">
<svg version="1.1" id="Layer_1" xmlns="http://www.w3.org/2000/svg" xmlns:xlink="http://www.w3.org/1999/xlink" x="0px" y="0px"
	 viewBox="0 0 21 21" style="enable-background:new 0 0 21 21;" xml:space="preserve">
<style type="text/css">
	.Drop_x0020_Shadow{fill:none;}
	.Round_x0020_Corners_x0020_2_x0020_pt{fill:#FFFFFF;stroke:#000000;stroke-miterlimit:10;}
	.Live_x0020_Reflect_x0020_X{fill:none;}
	.Bevel_x0020_Soft{fill:url(#SVGID_1_);}
	.Dusk{fill:#FFFFFF;}
	.Foliage_GS{fill:#FFDD00;}
	.Pompadour_GS{fill-rule:evenodd;clip-rule:evenodd;fill:#44ADE2;}
	.st0{fill:#5F9640;}
</style>
<linearGradient id="SVGID_1_" gradientUnits="userSpaceOnUse" x1="0" y1="0" x2="0.7071" y2="0.7071">
	<stop  offset="0" style="stop-color:#DEDFE3"/>
	<stop  offset="0.1738" style="stop-color:#D8D9DD"/>
	<stop  offset="0.352" style="stop-color:#C9CACD"/>
	<stop  offset="0.5323" style="stop-color:#B4B5B8"/>
	<stop  offset="0.7139" style="stop-color:#989A9C"/>
	<stop  offset="0.8949" style="stop-color:#797C7E"/>
	<stop  offset="1" style="stop-color:#656B6C"/>
</linearGradient>
<path class="st0" d="M7.934,13.149l-4.667-1.867v1.578l4.667,1.869V13.149z M7.934,8.302L3.267,6.435v1.58l4.667,1.867V8.302z
	 M20.486,0.2C20.167-0.017,19.76-0.06,19.4,0.083l-8.9,3.561L1.6,0.083C1.24-0.06,0.834-0.017,0.511,0.2
	C0.192,0.417,0,0.779,0,1.167v14.934c0,0.476,0.291,0.904,0.733,1.083l9.314,3.725c0,0,0.19,0.06,0.227,0.068
	C10.348,20.992,10.425,21,10.499,21c0.077,0,0.152-0.008,0.227-0.023c0.035-0.008,0.227-0.07,0.227-0.07l9.314-3.723
	C20.71,17.005,21,16.576,21,16.101V1.167C21,0.779,20.807,0.417,20.486,0.2 M9.333,18.613l-7.466-2.987V2.551l7.466,2.985V18.613z
	 M19.133,15.625l-7.467,2.987V5.536l7.467-2.985V15.625z M17.733,11.282l-4.667,1.867v1.58l4.667-1.869V11.282z M17.733,6.435
	l-4.667,1.867v1.58l4.667-1.867V6.435z"/>
</svg>
