<?xml version="1.0" encoding="utf-8"?>
<!-- Generator: Adobe Illustrator 17.0.1, SVG Export Plug-In . SVG Version: 6.00 Build 0)  -->
<!DOCTYPE svg PUBLIC "-//W3C//DTD SVG 1.1//EN" "http://www.w3.org/Graphics/SVG/1.1/DTD/svg11.dtd">
<svg version="1.1" id="Layer_1" xmlns="http://www.w3.org/2000/svg" xmlns:xlink="http://www.w3.org/1999/xlink" x="0px" y="0px"
	 width="27px" height="26px" viewBox="0 0 27 26" enable-background="new 0 0 27 26" xml:space="preserve">
<g>
	<g>
		<path fill="#FFFFFF" d="M13.625,0C6.249,0,0.25,5.333,0.25,11.891c0,6.559,5.998,11.891,13.375,11.891
			c3.029,0,5.828-0.901,8.073-2.416C24.917,19.192,27,15.754,27,11.891C27,5.333,20.999,0,13.625,0z M15.074,19.426h-3.161v-3.174
			h3.161V19.426z M18.325,9.964c-0.168,0.426-0.376,0.791-0.624,1.091c-0.25,0.304-0.524,0.562-0.826,0.776
			c-0.301,0.213-0.587,0.426-0.855,0.64c-0.267,0.212-0.506,0.453-0.714,0.729c-0.207,0.276-0.34,0.622-0.393,1.032v0.782h-2.716
			v-0.929c0.04-0.592,0.151-1.084,0.332-1.484c0.182-0.399,0.393-0.738,0.634-1.02c0.242-0.28,0.496-0.527,0.765-0.732
			c0.268-0.207,0.516-0.413,0.746-0.616c0.225-0.209,0.412-0.434,0.553-0.683c0.141-0.246,0.202-0.559,0.192-0.927
			c0-0.634-0.152-1.101-0.455-1.402c-0.3-0.304-0.72-0.456-1.259-0.456c-0.359,0-0.672,0.073-0.932,0.217
			c-0.264,0.144-0.48,0.338-0.645,0.576c-0.17,0.243-0.291,0.523-0.373,0.846c-0.08,0.325-0.12,0.67-0.12,1.041H8.673
			c0.014-0.742,0.138-1.423,0.373-2.04c0.236-0.62,0.564-1.153,0.986-1.606c0.423-0.456,0.932-0.807,1.531-1.061
			c0.596-0.258,1.264-0.384,2.004-0.384c0.952,0,1.745,0.134,2.384,0.405c0.637,0.268,1.149,0.6,1.538,0.998
			c0.39,0.401,0.668,0.832,0.836,1.29c0.168,0.462,0.251,0.892,0.251,1.289C18.575,8.995,18.492,9.539,18.325,9.964z"/>
		<polyline fill="#FFFFFF" points="3.829,18.553 0,26 10.419,20.814 		"/>
	</g>
</g>
</svg>
