<?xml version="1.0" encoding="utf-8"?>
<!-- Generator: Adobe Illustrator 17.0.1, SVG Export Plug-In . SVG Version: 6.00 Build 0)  -->
<!DOCTYPE svg PUBLIC "-//W3C//DTD SVG 1.1//EN" "http://www.w3.org/Graphics/SVG/1.1/DTD/svg11.dtd">
<svg version="1.1" id="Layer_1" xmlns="http://www.w3.org/2000/svg" xmlns:xlink="http://www.w3.org/1999/xlink" x="0px" y="0px"
	 width="30px" height="170px" viewBox="0 0 30 170" enable-background="new 0 0 30 170" xml:space="preserve">
<rect fill="#F7931E" width="29.651" height="170"/>
<g enable-background="new    ">
	<path fill="#FFFFFF" d="M18.104,147.509c0-0.117,0.045-0.219,0.136-0.304l0.92-0.848c0.581,0.469,1.026,1.047,1.336,1.731
		c0.31,0.686,0.464,1.508,0.464,2.468c0,0.859-0.146,1.631-0.439,2.316c-0.294,0.686-0.702,1.271-1.225,1.756
		s-1.146,0.857-1.872,1.116c-0.725,0.259-1.517,0.388-2.376,0.388c-0.869,0-1.665-0.145-2.388-0.432
		c-0.723-0.288-1.346-0.693-1.868-1.217c-0.522-0.521-0.93-1.147-1.22-1.875c-0.291-0.729-0.437-1.532-0.437-2.412
		c0-0.859,0.138-1.609,0.412-2.252c0.275-0.643,0.639-1.193,1.092-1.652l1,0.72c0.064,0.043,0.12,0.098,0.168,0.164
		c0.049,0.067,0.072,0.159,0.072,0.276c0,0.123-0.048,0.248-0.144,0.376c-0.097,0.128-0.2,0.29-0.313,0.487
		c-0.111,0.197-0.216,0.447-0.312,0.748c-0.097,0.302-0.145,0.685-0.145,1.148c0,0.544,0.095,1.044,0.284,1.5
		s0.46,0.848,0.813,1.176c0.352,0.328,0.779,0.584,1.283,0.768c0.504,0.185,1.071,0.277,1.7,0.277c0.651,0,1.229-0.093,1.736-0.277
		c0.507-0.184,0.934-0.433,1.28-0.748c0.347-0.314,0.611-0.685,0.796-1.111c0.184-0.427,0.275-0.885,0.275-1.376
		c0-0.294-0.016-0.559-0.048-0.796s-0.082-0.456-0.152-0.656c-0.068-0.199-0.158-0.389-0.268-0.568
		c-0.109-0.178-0.244-0.355-0.404-0.531c-0.048-0.054-0.086-0.109-0.115-0.168S18.104,147.578,18.104,147.509z"/>
	<path fill="#FFFFFF" d="M20.831,134.974v2.168h-5.056v5.424h5.056v2.168H9.263v-2.168h4.977v-5.424H9.263v-2.168H20.831z"/>
</g>
<g enable-background="new    ">
	<path fill="#FFFFFF" d="M20.831,122.18v1.664c0,0.187-0.047,0.34-0.14,0.46c-0.094,0.12-0.21,0.206-0.349,0.26l-2.359,0.864v4.792
		l2.359,0.864c0.123,0.043,0.235,0.127,0.336,0.252c0.102,0.125,0.152,0.278,0.152,0.459v1.673l-11.568-4.544v-2.2L20.831,122.18z
		 M16.463,129.668v-3.688l-3.848,1.408c-0.171,0.063-0.372,0.135-0.604,0.212c-0.231,0.077-0.483,0.153-0.756,0.229
		c0.272,0.074,0.525,0.147,0.76,0.22c0.235,0.071,0.44,0.143,0.616,0.212L16.463,129.668z"/>
</g>
<g enable-background="new    ">
	<path fill="#FFFFFF" d="M9.263,113.846h1.769v3.48h9.8v2.152h-9.8v3.496H9.263V113.846z"/>
</g>
<g enable-background="new    ">
	<path fill="#FFFFFF" d="M9.263,106.895v-1.809c0-0.187,0.044-0.342,0.133-0.468c0.088-0.125,0.206-0.209,0.355-0.252l6.92-1.968
		c0.171-0.049,0.356-0.092,0.557-0.133c0.199-0.039,0.411-0.078,0.636-0.115c-0.225-0.043-0.437-0.09-0.636-0.141
		c-0.2-0.051-0.386-0.105-0.557-0.164l-6.92-2.271c-0.122-0.043-0.234-0.127-0.336-0.252s-0.152-0.279-0.152-0.46V98.23
		c0-0.188,0.044-0.342,0.133-0.465c0.088-0.122,0.206-0.207,0.355-0.256l6.92-2.256c0.342-0.117,0.72-0.219,1.136-0.304
		c-0.208-0.037-0.407-0.076-0.6-0.116c-0.192-0.039-0.37-0.081-0.536-0.123l-6.92-1.969c-0.133-0.037-0.248-0.12-0.344-0.248
		s-0.145-0.283-0.145-0.464v-1.688l11.568,3.592v1.945l-7.904,2.527c-0.101,0.032-0.21,0.065-0.328,0.1
		c-0.117,0.035-0.242,0.068-0.376,0.101c0.134,0.032,0.259,0.065,0.376,0.1c0.118,0.035,0.228,0.068,0.328,0.101l7.904,2.552v1.944
		L9.263,106.895z"/>
</g>
<g enable-background="new    ">
	<path fill="#FFFFFF" d="M20.831,86.509v2.159H9.263v-2.159H20.831z"/>
	<path fill="#FFFFFF" d="M9.263,75.757h1.769v3.48h9.8v2.152h-9.8v3.496H9.263V75.757z"/>
</g>
<g enable-background="new    ">
	<path fill="#FFFFFF" d="M20.831,64.309v2.168h-5.056v5.424h5.056v2.168H9.263v-2.168h4.977v-5.424H9.263v-2.168H20.831z"/>
</g>
<g enable-background="new    ">
	<path fill="#FFFFFF" d="M19.095,50.838c0-0.416-0.069-0.788-0.208-1.116s-0.333-0.605-0.584-0.832
		c-0.25-0.227-0.555-0.4-0.912-0.52c-0.356-0.12-0.757-0.18-1.199-0.18H9.263v-2.152h6.929c0.688,0,1.323,0.111,1.907,0.332
		s1.089,0.54,1.513,0.956s0.755,0.92,0.992,1.512c0.236,0.592,0.355,1.259,0.355,2c0,0.742-0.119,1.408-0.355,2
		c-0.237,0.592-0.568,1.095-0.992,1.508c-0.424,0.413-0.929,0.73-1.513,0.952c-0.584,0.221-1.22,0.332-1.907,0.332H9.263v-2.152
		h6.92c0.443,0,0.843-0.06,1.2-0.18c0.357-0.12,0.663-0.292,0.916-0.516c0.254-0.224,0.449-0.5,0.588-0.828
		S19.095,51.254,19.095,50.838z"/>
</g>
<g enable-background="new    ">
	<path fill="#FFFFFF" d="M11.367,37.357c0.117,0.059,0.2,0.127,0.248,0.204c0.048,0.078,0.072,0.169,0.072,0.276
		c0,0.107-0.042,0.227-0.124,0.36c-0.083,0.133-0.175,0.291-0.276,0.472c-0.102,0.182-0.193,0.394-0.276,0.636
		c-0.082,0.243-0.124,0.529-0.124,0.86c0,0.299,0.036,0.559,0.108,0.78c0.072,0.221,0.172,0.408,0.3,0.56
		c0.128,0.152,0.281,0.266,0.46,0.34s0.375,0.112,0.588,0.112c0.272,0,0.499-0.076,0.681-0.228c0.181-0.152,0.336-0.353,0.464-0.604
		c0.128-0.25,0.242-0.536,0.344-0.856s0.209-0.646,0.324-0.98c0.114-0.333,0.248-0.66,0.399-0.98
		c0.152-0.32,0.345-0.605,0.576-0.856c0.232-0.25,0.517-0.452,0.853-0.604s0.744-0.228,1.224-0.228c0.522,0,1.012,0.089,1.468,0.268
		s0.854,0.44,1.192,0.784c0.339,0.344,0.605,0.764,0.8,1.26s0.292,1.064,0.292,1.704c0,0.368-0.036,0.73-0.108,1.088
		c-0.071,0.357-0.174,0.7-0.308,1.028c-0.133,0.328-0.293,0.635-0.479,0.92c-0.188,0.285-0.396,0.54-0.624,0.764l-1.032-0.624
		c-0.075-0.059-0.138-0.129-0.188-0.212c-0.051-0.083-0.076-0.175-0.076-0.276c0-0.133,0.056-0.277,0.164-0.432
		c0.109-0.155,0.231-0.337,0.364-0.548c0.134-0.211,0.255-0.459,0.364-0.744s0.164-0.628,0.164-1.028
		c0-0.613-0.146-1.088-0.437-1.424c-0.29-0.336-0.708-0.504-1.252-0.504c-0.304,0-0.552,0.076-0.744,0.228
		c-0.191,0.152-0.353,0.354-0.483,0.604c-0.131,0.251-0.241,0.536-0.332,0.856c-0.091,0.32-0.189,0.646-0.296,0.976
		s-0.234,0.656-0.384,0.976s-0.345,0.605-0.584,0.856c-0.24,0.251-0.54,0.452-0.9,0.604s-0.804,0.228-1.332,0.228
		c-0.421,0-0.832-0.084-1.232-0.252c-0.399-0.168-0.754-0.414-1.063-0.736c-0.31-0.322-0.558-0.718-0.744-1.188
		c-0.187-0.469-0.28-1.005-0.28-1.608c0-0.683,0.107-1.312,0.32-1.888c0.213-0.576,0.512-1.067,0.896-1.472L11.367,37.357z"/>
</g>
<path fill="#FFFFFF" d="M11.476,21.754c-0.217,0.218-0.217,0.571,0,0.789c0.214,0.218,0.565,0.218,0.78,0l6.321-6.383
	c0.216-0.218,0.216-0.573,0-0.791l-6.321-6.382c-0.215-0.218-0.566-0.218-0.78,0c-0.217,0.218-0.217,0.571-0.002,0.789l5.764,5.989
	L11.476,21.754z"/>
<path fill="none" stroke="#FFFFFF" stroke-width="1.056" d="M11.476,21.754c-0.217,0.218-0.217,0.571,0,0.789
	c0.214,0.218,0.565,0.218,0.78,0l6.321-6.383c0.216-0.218,0.216-0.573,0-0.791l-6.321-6.382c-0.215-0.218-0.566-0.218-0.78,0
	c-0.217,0.218-0.217,0.571-0.002,0.789l5.764,5.989L11.476,21.754z"/>
</svg>
