<?xml version="1.0" encoding="utf-8"?>
<!-- Generator: Adobe Illustrator 17.0.1, SVG Export Plug-In . SVG Version: 6.00 Build 0)  -->
<!DOCTYPE svg PUBLIC "-//W3C//DTD SVG 1.1//EN" "http://www.w3.org/Graphics/SVG/1.1/DTD/svg11.dtd">
<svg version="1.1" id="Layer_1" xmlns="http://www.w3.org/2000/svg" xmlns:xlink="http://www.w3.org/1999/xlink" x="0px" y="0px"
	 width="40px" height="40px" viewBox="0 0 40 40" enable-background="new 0 0 40 40" xml:space="preserve">
<rect fill="#738A8D" width="40" height="40"/>
<path fill="#FFFFFF" d="M7.511,11.716V12v15.469v0.193h24.927v-0.193V12v-0.284H7.511z M30.742,25.94l-6.195-6.201l6.195-6.206
	V25.94z M9.208,13.532l6.197,6.206L9.208,25.94V13.532z M11.704,26.15l5.05-5.062l3.217,3.225l3.223-3.225l5.05,5.062H11.704z
	 M21.838,19.738l-1.866,1.866l-1.866-1.866l-1.351-1.359l-5.05-5.058h16.541l-5.05,5.058L21.838,19.738z"/>
<path fill="none" stroke="#FFFFFF" stroke-width="0.272" stroke-linecap="round" stroke-linejoin="round" d="M7.511,11.716V12
	v15.469v0.193h24.927v-0.193V12v-0.284H7.511z M30.742,25.94l-6.195-6.201l6.195-6.206V25.94z M9.208,13.532l6.197,6.206
	L9.208,25.94V13.532z M11.704,26.15l5.05-5.062l3.217,3.225l3.223-3.225l5.05,5.062H11.704z M21.838,19.738l-1.866,1.866
	l-1.866-1.866l-1.351-1.359l-5.05-5.058h16.541l-5.05,5.058L21.838,19.738z"/>
</svg>
