<?xml version="1.0" encoding="utf-8"?>
<!-- Generator: Adobe Illustrator 17.0.1, SVG Export Plug-In . SVG Version: 6.00 Build 0)  -->
<!DOCTYPE svg PUBLIC "-//W3C//DTD SVG 1.1//EN" "http://www.w3.org/Graphics/SVG/1.1/DTD/svg11.dtd">
<svg version="1.1" id="Layer_1" xmlns="http://www.w3.org/2000/svg" xmlns:xlink="http://www.w3.org/1999/xlink" x="0px" y="0px"
	 width="28px" height="27px" viewBox="0 0 28 27" enable-background="new 0 0 28 27" xml:space="preserve">
<g>
	<g>
		<path fill="#5F9640" d="M13.956,0C6.4,0,0.256,5.334,0.256,11.891s6.145,11.89,13.701,11.89c3.103,0,5.969-0.9,8.27-2.416
			c3.298-2.172,5.431-5.611,5.431-9.474C27.657,5.334,21.51,0,13.956,0z M15.441,19.425h-3.238v-3.174h3.238V19.425z M18.771,9.964
			c-0.172,0.426-0.385,0.791-0.64,1.091c-0.257,0.303-0.537,0.563-0.847,0.775c-0.308,0.214-0.601,0.426-0.876,0.641
			c-0.274,0.212-0.518,0.454-0.732,0.731c-0.212,0.274-0.349,0.619-0.402,1.032v0.782h-2.783v-0.93
			c0.041-0.59,0.155-1.083,0.34-1.482c0.187-0.399,0.402-0.739,0.65-1.02c0.248-0.281,0.508-0.526,0.783-0.733
			c0.275-0.207,0.529-0.413,0.764-0.616c0.231-0.209,0.422-0.434,0.567-0.682c0.144-0.247,0.207-0.559,0.196-0.927
			c0-0.634-0.156-1.101-0.466-1.402c-0.308-0.304-0.738-0.455-1.29-0.455c-0.368,0-0.688,0.073-0.955,0.216
			c-0.27,0.144-0.49,0.338-0.661,0.577c-0.173,0.242-0.298,0.523-0.382,0.845c-0.082,0.324-0.123,0.67-0.123,1.042H8.884
			c0.015-0.743,0.141-1.424,0.382-2.042c0.242-0.619,0.577-1.153,1.01-1.605c0.433-0.456,0.955-0.807,1.567-1.061
			c0.611-0.258,1.295-0.384,2.052-0.384c0.975,0,1.788,0.134,2.442,0.405c0.653,0.268,1.177,0.6,1.576,0.997
			c0.4,0.4,0.685,0.832,0.857,1.289c0.172,0.462,0.258,0.892,0.258,1.288C19.027,8.994,18.942,9.539,18.771,9.964z"/>
		<polyline fill="#5F9640" points="3.921,18.554 0,26 10.673,20.813 		"/>
	</g>
</g>
</svg>
