<?xml version="1.0" encoding="utf-8"?>
<!-- Generator: Adobe Illustrator 17.0.1, SVG Export Plug-In . SVG Version: 6.00 Build 0)  -->
<!DOCTYPE svg PUBLIC "-//W3C//DTD SVG 1.1//EN" "http://www.w3.org/Graphics/SVG/1.1/DTD/svg11.dtd">
<svg version="1.1" id="Layer_1" xmlns="http://www.w3.org/2000/svg" xmlns:xlink="http://www.w3.org/1999/xlink" x="0px" y="0px"
	 width="220px" height="156px" viewBox="0 0 220 156" enable-background="new 0 0 220 156" xml:space="preserve">
<rect y="0.001" fill="#F7931E" width="220" height="155.999"/>
<path fill="#5F9531" d="M49.064,95.882c-4.619-0.83-9.035,2.24-9.865,6.861c-0.83,4.616,2.242,9.034,6.861,9.866
	c4.617,0.828,9.035-2.247,9.865-6.864C56.754,101.128,53.682,96.71,49.064,95.882"/>
<path fill="#F7931E" d="M47.084,106.902c-2.346-0.424-4.135-1.926-4.584-3.656c-0.273,0.39-0.467,0.83-0.551,1.31
	c-0.406,2.268,1.674,4.537,4.646,5.073c2.973,0.533,5.715-0.872,6.121-3.139c0.086-0.479,0.061-0.957-0.059-1.42
	C51.635,106.537,49.434,107.324,47.084,106.902"/>
<path fill="#5F9531" d="M58.811,136.64c1.762-0.357,2.963-1.758,2.685-3.127c-0.482-2.367-4.299-4.807-4.299-4.807
	s-2.562,3.737-2.08,6.102C55.396,136.179,57.047,136.997,58.811,136.64"/>
<path fill="#5F9531" d="M53.525,125.299c0,4.495-3.336,8.173-7.414,8.173c-4.078,0-7.414-3.678-7.414-8.173v-3.531
	c0-4.495,3.336-8.173,7.414-8.173c4.078,0,7.414,3.678,7.414,8.173V125.299z"/>
<line fill="none" stroke="#5F9531" stroke-width="4.904" stroke-linecap="round" stroke-linejoin="round" stroke-miterlimit="10" x1="41.187" y1="125.788" x2="42.82" y2="143.102"/>
<polyline fill="none" stroke="#5F9531" stroke-width="4.904" stroke-linecap="round" stroke-linejoin="round" stroke-miterlimit="10" points="
	51.094,125.788 49.625,143.102 56.42,143.102 "/>
<path fill="none" stroke="#5F9531" stroke-width="4.904" stroke-linecap="round" stroke-linejoin="round" stroke-miterlimit="10" d="
	M27.936,116.761c0,0,7.711,2.846,15.975-0.262"/>
<path fill="none" stroke="#5F9531" stroke-width="4.904" stroke-linecap="round" stroke-linejoin="round" stroke-miterlimit="10" d="
	M57.674,131.363c0,0-1.346-8.109-8.141-13.746"/>
<path fill="#FFFFFF" d="M49.043,120.171c1.566,0.891,3.365,0.67,4.025-0.486c1.141-2.002-0.201-6.225-0.201-6.225
	s-4.316,1-5.457,3.002C46.75,117.621,47.482,119.28,49.043,120.171"/>
<path fill="#FFFFFF" d="M30.248,95.964c-4.496,1.041-7.295,5.533-6.25,10.027c1.041,4.497,5.529,7.295,10.027,6.252
	c4.494-1.043,7.293-5.533,6.252-10.029C39.232,97.72,34.742,94.923,30.248,95.964"/>
<path fill="#F7941D" d="M32.736,106.691c-2.285,0.531-4.486-0.133-5.562-1.521c-0.096,0.457-0.1,0.927,0.01,1.396
	c0.512,2.207,3.274,3.449,6.168,2.779c2.894-0.67,4.823-3.006,4.314-5.213c-0.109-0.466-0.318-0.886-0.605-1.257
	C36.703,104.597,35.021,106.162,32.736,106.691"/>
<path fill="none" stroke="#FFFFFF" stroke-width="4.904" stroke-linecap="round" stroke-linejoin="round" stroke-miterlimit="10" d="
	M16.244,116.761c0,0,7.713,2.846,15.976-0.262"/>
<polyline fill="none" stroke="#FFFFFF" stroke-width="4.904" stroke-linecap="round" stroke-linejoin="round" stroke-miterlimit="10" points="
	27.602,125.788 29.236,143.102 22.443,143.102 "/>
<polyline fill="none" stroke="#FFFFFF" stroke-width="4.904" stroke-linecap="round" stroke-linejoin="round" stroke-miterlimit="10" points="
	37.512,125.788 36.041,143.102 42.836,143.102 "/>
<path fill="#FFFFFF" d="M39.932,125.299c0,4.495-3.337,8.173-7.416,8.173s-7.416-3.678-7.416-8.173v-3.531
	c0-4.495,3.337-8.173,7.416-8.173s7.416,3.678,7.416,8.173V125.299z"/>
<path fill="#FFFFFF" d="M11.01,115.027c-0.492,1.73,0.148,3.424,1.43,3.791c2.215,0.633,5.998-1.672,5.998-1.672
	s-1.996-3.953-4.211-4.588C12.943,112.195,11.504,113.3,11.01,115.027"/>
<path fill="#5F9531" d="M30.371,119.787c1.475-1.029,2.049-2.752,1.285-3.844c-1.32-1.888-5.713-2.482-5.713-2.482
	s-0.943,4.328,0.381,6.215C27.088,120.767,28.9,120.818,30.371,119.787"/>
</svg>
