<?xml version="1.0" encoding="utf-8"?>
<!-- Generator: Adobe Illustrator 17.0.1, SVG Export Plug-In . SVG Version: 6.00 Build 0)  -->
<!DOCTYPE svg PUBLIC "-//W3C//DTD SVG 1.1//EN" "http://www.w3.org/Graphics/SVG/1.1/DTD/svg11.dtd">
<svg version="1.1" id="Layer_1" xmlns="http://www.w3.org/2000/svg" xmlns:xlink="http://www.w3.org/1999/xlink" x="0px" y="0px"
	 width="40px" height="40px" viewBox="0 0 40 40" enable-background="new 0 0 40 40" xml:space="preserve">
<rect x="0.001" fill="#CE4D39" width="39.999" height="40"/>
<polygon fill="#FFFFFF" points="36.455,12.178 30.739,12.178 30.739,6.464 27.879,6.464 27.879,12.178 22.163,12.178 22.163,15.037 
	27.879,15.037 27.879,20.753 30.739,20.753 30.739,15.037 36.455,15.037 "/>
<path fill="#FFFFFF" d="M21.169,5.891H8.778C5.29,5.891,2.127,7.322,0,9.462v13.076c1.588,1.522,3.819,2.453,6.606,2.453
	c0.412,0,0.811-0.022,1.202-0.049c-0.385,0.736-0.66,1.555-0.66,2.414c0,1.45,0.798,2.274,1.784,3.232
	c-0.745,0-1.463,0.021-2.247,0.021c-2.543,0-4.808,0.627-6.684,1.635v3.825c1.483-2.348,4.694-4.036,8.315-3.996
	c1.161,0.013,2.243,0.198,3.225,0.517c2.703,1.878,4.881,3.051,5.427,5.192c0.102,0.432,0.159,0.879,0.159,1.336
	c0,0.301-0.022,0.594-0.053,0.882h3.733c0.101-0.468,0.166-0.939,0.166-1.412c0-3.752-0.811-5.64-4.81-8.642
	c-1.149-0.861-3.65-2.627-3.65-3.813c0-1.389,0.399-2.073,2.489-3.707c2.145-1.675,3.661-3.881,3.661-6.622
	c0-2.983-1.22-5.69-3.516-7.005h3.253L21.169,5.891z M9,23.098c-3.339-0.1-6.513-3.163-7.089-7.548
	c-0.577-4.387,1.662-7.743,5.001-7.645c3.337,0.1,6.195,3.699,6.773,8.084C14.26,20.375,12.339,23.199,9,23.098"/>
</svg>
