<?xml version="1.0" encoding="utf-8"?>
<!-- Generator: Adobe Illustrator 17.0.1, SVG Export Plug-In . SVG Version: 6.00 Build 0)  -->
<!DOCTYPE svg PUBLIC "-//W3C//DTD SVG 1.1//EN" "http://www.w3.org/Graphics/SVG/1.1/DTD/svg11.dtd">
<svg version="1.1" id="Layer_1" xmlns="http://www.w3.org/2000/svg" xmlns:xlink="http://www.w3.org/1999/xlink" x="0px" y="0px"
	 width="15px" height="15px" viewBox="0 0 15 15" enable-background="new 0 0 15 15" xml:space="preserve">
<g>
	<path fill-rule="evenodd" clip-rule="evenodd" fill="#5F9531" d="M14.142,0.767c-0.368,0.762-0.95,1.368-1.467,2.022
		c-0.431,0.544-0.86,1.091-1.307,1.623c-0.227,0.269-0.406,0.579-0.626,0.855c-1.456,1.839-2.809,3.752-4.118,5.695
		c-0.634,0.94-1.277,1.872-1.91,2.813c-0.056,0.082-0.124,0.155-0.172,0.239c-0.165,0.285-0.436,0.375-0.736,0.424
		c-0.074,0.012-0.153,0.006-0.222,0.047c-0.039,0-0.079,0-0.118,0c-0.047-0.02-0.093-0.02-0.141,0c-0.054,0-0.11,0-0.164,0
		c-0.048-0.02-0.095-0.02-0.143,0c-0.047,0-0.094,0-0.14,0c-0.15-0.029-0.301-0.033-0.452-0.045
		c-0.155-0.014-0.268-0.075-0.357-0.21c-0.259-0.402-0.462-0.83-0.615-1.282C1.212,12.241,1,11.526,0.8,10.808
		c-0.053-0.194-0.052-0.395-0.092-0.589c0-0.032,0-0.064,0-0.096c0.029-0.078-0.002-0.163,0.02-0.242
		C0.735,9.764,0.804,9.675,0.88,9.595c0.435-0.442,0.945-0.729,1.583-0.748C2.705,8.842,2.86,8.95,2.969,9.16
		c0.235,0.451,0.438,0.918,0.639,1.388c0.077,0.176,0.154,0.351,0.283,0.499c0.115,0.13,0.163,0.132,0.283,0.002
		c0.173-0.182,0.328-0.383,0.466-0.593C5.291,9.466,5.92,8.463,6.593,7.487c1.314-1.906,2.682-3.774,4.147-5.568
		c0.083-0.1,0.164-0.201,0.214-0.322c0.027-0.065,0.083-0.104,0.135-0.145c0.426-0.338,0.867-0.648,1.394-0.811
		c0.237-0.076,0.485-0.096,0.729-0.131c0.028-0.005,0.065,0.013,0.082-0.026c0.055,0,0.11,0,0.165,0
		c0.054,0.024,0.113,0.006,0.168,0.012c0.069-0.006,0.14,0.012,0.209-0.012c0.031,0,0.062,0,0.094,0
		c0.085,0.026,0.197,0.009,0.212,0.141C14.142,0.673,14.142,0.72,14.142,0.767z"/>
	<path fill-rule="evenodd" clip-rule="evenodd" fill="#5F9531" d="M0.728,9.881c0.001,0.081,0.021,0.165-0.02,0.242
		c0-0.078,0-0.156,0-0.236C0.714,9.886,0.721,9.884,0.728,9.881z"/>
	<path fill-rule="evenodd" clip-rule="evenodd" fill="#5F9531" d="M13.837,0.484c-0.067,0.039-0.143,0.018-0.214,0.022
		c-0.015-0.008-0.014-0.016,0.002-0.022C13.694,0.484,13.766,0.484,13.837,0.484z"/>
	<path fill-rule="evenodd" clip-rule="evenodd" fill="#5F9531" d="M13.624,0.484c0,0.006,0,0.016-0.002,0.022
		c-0.054-0.004-0.113,0.02-0.163-0.022C13.514,0.484,13.57,0.484,13.624,0.484z"/>
	<path fill-rule="evenodd" clip-rule="evenodd" fill="#5F9531" d="M3.017,14.484c0.048-0.035,0.095-0.029,0.143,0
		C3.112,14.484,3.065,14.484,3.017,14.484z"/>
	<path fill-rule="evenodd" clip-rule="evenodd" fill="#5F9531" d="M3.324,14.484c0.049-0.027,0.095-0.037,0.141,0
		C3.419,14.484,3.372,14.484,3.324,14.484z"/>
</g>
</svg>
