<?xml version="1.0" encoding="utf-8"?>
<!-- Generator: Adobe Illustrator 17.0.1, SVG Export Plug-In . SVG Version: 6.00 Build 0)  -->
<!DOCTYPE svg PUBLIC "-//W3C//DTD SVG 1.1//EN" "http://www.w3.org/Graphics/SVG/1.1/DTD/svg11.dtd">
<svg version="1.1" id="Layer_1" xmlns="http://www.w3.org/2000/svg" xmlns:xlink="http://www.w3.org/1999/xlink" x="0px" y="0px"
	 width="28px" height="28px" viewBox="0 0 28 28" enable-background="new 0 0 28 28" xml:space="preserve">
<path fill="#5F9531" d="M14,0C6.28,0,0,6.282,0,14c0,7.721,6.28,14,14,14s14-6.28,14-14C28,6.282,21.72,0,14,0z M25.94,14
	c0,2.732-0.927,5.25-2.474,7.265c-0.438-0.344-0.902-1.266-0.465-2.223c0.44-0.963,0.557-3.19,0.456-4.058
	c-0.098-0.866-0.547-2.955-1.771-2.975c-1.221-0.019-2.059-0.422-2.786-1.872c-1.507-3.015,2.829-3.594,1.322-5.265
	c-0.423-0.468-2.601,1.931-2.92-1.267C17.281,3.38,17.5,3.038,17.792,2.683C22.522,4.272,25.94,8.743,25.94,14z M12.359,2.178
	c-0.286,0.556-1.039,0.782-1.498,1.2C9.865,4.281,9.436,4.156,8.899,5.022c-0.54,0.866-2.284,2.115-2.284,2.741
	c0,0.625,0.881,1.365,1.321,1.221c0.44-0.145,1.602-0.137,2.285,0.103c0.684,0.242,5.708,0.483,4.107,4.731
	c-0.507,1.35-2.731,1.123-3.323,3.36c-0.089,0.327-0.396,1.729-0.417,2.188c-0.036,0.708,0.501,3.381-0.183,3.381
	c-0.686,0-2.533-2.39-2.533-2.823c0-0.433-0.48-1.952-0.48-3.252c0-1.301-2.212-1.279-2.212-3.008c0-1.561,1.2-2.335,0.93-3.083
	C5.846,9.837,3.736,9.81,2.858,9.721C4.393,5.738,8.006,2.78,12.359,2.178z M10.245,25.332c0.717-0.378,0.789-0.867,1.439-0.895
	c0.744-0.034,1.35-0.291,2.188-0.474c0.744-0.163,2.075-0.918,3.248-1.016c0.987-0.08,2.938,0.052,3.464,1.006
	c-1.89,1.254-4.153,1.987-6.584,1.987C12.688,25.941,11.427,25.725,10.245,25.332z"/>
</svg>
