<?xml version="1.0" encoding="utf-8"?>
<!-- Generator: Adobe Illustrator 17.0.1, SVG Export Plug-In . SVG Version: 6.00 Build 0)  -->
<!DOCTYPE svg PUBLIC "-//W3C//DTD SVG 1.1//EN" "http://www.w3.org/Graphics/SVG/1.1/DTD/svg11.dtd">
<svg version="1.1" id="Layer_1" xmlns="http://www.w3.org/2000/svg" xmlns:xlink="http://www.w3.org/1999/xlink" x="0px" y="0px"
	 width="22px" height="17px" viewBox="0 0 22 17" enable-background="new 0 0 22 17" xml:space="preserve">
<path fill="#5F9531" d="M3.632,11.003c0.511,2.103,1.159,3.019,3.326,3.984C9.122,15.95,10.151,17,11,17
	c0.851,0,1.813-0.92,3.979-1.883c2.166-0.963,1.589-1.256,2.098-3.356L11,14.762L3.632,11.003z M21.462,5.521l-9.157-5.215
	c-0.716-0.408-1.89-0.408-2.609,0L0.538,5.521c-0.717,0.408-0.717,1.076,0,1.485l9.158,5.215c0.718,0.408,1.892,0.408,2.609,0
	l5.921-3.37l-6.42-1.531C11.558,7.383,11.285,7.418,11,7.418c-1.156,0-2.094-0.566-2.094-1.265S9.844,4.885,11,4.885
	c0.899,0,1.662,0.343,1.959,0.822l6.8,2.27l1.703-0.972C22.179,6.597,22.179,5.929,21.462,5.521 M18.664,15.402
	c-0.069,0.429,1.412,1.136,1.554-0.121c0.635-5.671-0.459-7.302-0.459-7.302L18.225,8.85C18.225,8.85,19.525,10.108,18.664,15.402"
	/>
</svg>
