<?xml version="1.0" encoding="utf-8"?>
<!-- Generator: Adobe Illustrator 17.1.0, SVG Export Plug-In . SVG Version: 6.00 Build 0)  -->
<!DOCTYPE svg PUBLIC "-//W3C//DTD SVG 1.1//EN" "http://www.w3.org/Graphics/SVG/1.1/DTD/svg11.dtd">
<svg version="1.1" id="Layer_1" xmlns="http://www.w3.org/2000/svg" xmlns:xlink="http://www.w3.org/1999/xlink" x="0px" y="0px"
	 viewBox="0 0 23 17" style="enable-background:new 0 0 23 17;" xml:space="preserve">
<style type="text/css">
	.Drop_x0020_Shadow{fill:none;}
	.Round_x0020_Corners_x0020_2_x0020_pt{fill:#FFFFFF;stroke:#000000;stroke-miterlimit:10;}
	.Live_x0020_Reflect_x0020_X{fill:none;}
	.Bevel_x0020_Soft{fill:url(#SVGID_1_);}
	.Dusk{fill:#FFFFFF;}
	.Foliage_GS{fill:#FFDD00;}
	.Pompadour_GS{fill-rule:evenodd;clip-rule:evenodd;fill:#44ADE2;}
	.st0{fill:#5F9640;}
</style>
<linearGradient id="SVGID_1_" gradientUnits="userSpaceOnUse" x1="0" y1="0" x2="0.7071" y2="0.7071">
	<stop  offset="0" style="stop-color:#DEDFE3"/>
	<stop  offset="0.1738" style="stop-color:#D8D9DD"/>
	<stop  offset="0.352" style="stop-color:#C9CACD"/>
	<stop  offset="0.5323" style="stop-color:#B4B5B8"/>
	<stop  offset="0.7139" style="stop-color:#989A9C"/>
	<stop  offset="0.8949" style="stop-color:#797C7E"/>
	<stop  offset="1" style="stop-color:#656B6C"/>
</linearGradient>
<path class="st0" d="M3.797,11.003c0.535,2.103,1.212,3.019,3.477,3.984C9.537,15.95,10.612,17,11.499,17
	c0.889,0,1.896-0.92,4.159-1.883c2.265-0.963,1.661-1.256,2.193-3.356l-6.353,3.002L3.797,11.003z M22.437,5.521l-9.573-5.215
	c-0.749-0.408-1.976-0.408-2.728,0L0.563,5.521c-0.75,0.408-0.75,1.076,0,1.485l9.573,5.215c0.751,0.408,1.978,0.408,2.728,0
	l6.189-3.37L12.341,7.32c-0.258,0.064-0.544,0.098-0.842,0.098c-1.208,0-2.188-0.566-2.188-1.265s0.98-1.267,2.188-1.267
	c0.941,0,1.738,0.343,2.049,0.822l7.108,2.27l1.781-0.972C23.188,6.597,23.188,5.929,22.437,5.521 M19.511,15.402
	c-0.072,0.429,1.476,1.136,1.625-0.121c0.664-5.671-0.48-7.302-0.48-7.302l-1.603,0.872C19.053,8.851,20.412,10.108,19.511,15.402"
	/>
</svg>
