<?xml version="1.0" encoding="utf-8"?>
<!-- Generator: Adobe Illustrator 17.1.0, SVG Export Plug-In . SVG Version: 6.00 Build 0)  -->
<!DOCTYPE svg PUBLIC "-//W3C//DTD SVG 1.1//EN" "http://www.w3.org/Graphics/SVG/1.1/DTD/svg11.dtd">
<svg version="1.1" id="Layer_1" xmlns="http://www.w3.org/2000/svg" xmlns:xlink="http://www.w3.org/1999/xlink" x="0px" y="0px"
	 viewBox="0 0 19 21" style="enable-background:new 0 0 19 21;" xml:space="preserve">
<style type="text/css">
	.Drop_x0020_Shadow{fill:none;}
	.Round_x0020_Corners_x0020_2_x0020_pt{fill:#FFFFFF;stroke:#000000;stroke-miterlimit:10;}
	.Live_x0020_Reflect_x0020_X{fill:none;}
	.Bevel_x0020_Soft{fill:url(#SVGID_1_);}
	.Dusk{fill:#FFFFFF;}
	.Foliage_GS{fill:#FFDD00;}
	.Pompadour_GS{fill-rule:evenodd;clip-rule:evenodd;fill:#44ADE2;}
	.st0{fill:#5F9640;}
	.st1{clip-path:url(#SVGID_3_);fill:#5F9640;}
	.st2{clip-path:url(#SVGID_5_);fill:#5F9640;}
	.st3{clip-path:url(#SVGID_7_);fill:#5F9640;}
</style>
<linearGradient id="SVGID_1_" gradientUnits="userSpaceOnUse" x1="0" y1="0" x2="0.7071" y2="0.7071">
	<stop  offset="0" style="stop-color:#DEDFE3"/>
	<stop  offset="0.1738" style="stop-color:#D8D9DD"/>
	<stop  offset="0.352" style="stop-color:#C9CACD"/>
	<stop  offset="0.5323" style="stop-color:#B4B5B8"/>
	<stop  offset="0.7139" style="stop-color:#989A9C"/>
	<stop  offset="0.8949" style="stop-color:#797C7E"/>
	<stop  offset="1" style="stop-color:#656B6C"/>
</linearGradient>
<path class="st0" d="M10.429,0H2.684C1.202,0,0,1.171,0,2.619v15.763C0,19.829,1.202,21,2.684,21h6.224v-2.334l-1.081-1.049h-6.16
	V2.769h9.854v4.941c0.198-0.056,0.404-0.094,0.619-0.094c0.348,0,0.675,0.08,0.973,0.214V2.619C13.113,1.171,11.911,0,10.429,0"/>
<path class="st0" d="M9.981,21H19v-2.811c0-1.507-0.909-2.26-2.682-2.723l-2.851-0.615v-4.735c0-0.743-0.594-1.349-1.327-1.349
	c-0.732,0-1.324,0.605-1.324,1.349v5.169l-0.902-0.875c-0.527-0.514-1.367-0.498-1.875,0.038c-0.506,0.535-0.49,1.387,0.038,1.902
	l1.903,1.856V21z"/>
<line class="st0" x1="3.538" y1="5.447" x2="9.451" y2="5.447"/>
<g>
	<defs>
		<path id="SVGID_2_" d="M3.538,5.447h5.912H3.538z"/>
	</defs>
	<clipPath id="SVGID_3_">
		<use xlink:href="#SVGID_2_"  style="overflow:visible;"/>
	</clipPath>
	<path class="st1" d="M9.45,5.445h-5.91H9.45z"/>
	<path class="st1" d="M9.45,5.445h-5.91H9.45z"/>
	<path class="st1" d="M9.45,5.445h-5.91H9.45z"/>
	<path class="st1" d="M9.45,5.445h-5.91H9.45z"/>
	<path class="st1" d="M9.45,5.445h-5.91H9.45z"/>
	<path class="st1" d="M9.45,5.445h-5.91H9.45z"/>
	<path class="st1" d="M9.45,5.445h-5.91H9.45z"/>
	<path class="st1" d="M9.45,5.445h-5.91H9.45z"/>
	<path class="st1" d="M9.45,5.445h-5.91H9.45z"/>
	<path class="st1" d="M9.45,5.445h-5.91H9.45z"/>
	<path class="st1" d="M9.45,5.445h-5.91H9.45z"/>
	<path class="st1" d="M9.45,5.445h-5.91H9.45z"/>
	<path class="st1" d="M9.45,5.445h-5.91H9.45z"/>
	<path class="st1" d="M9.45,5.445h-5.91H9.45z"/>
	<path class="st1" d="M9.45,5.445h-5.91H9.45z"/>
	<path class="st1" d="M9.45,5.445h-5.91H9.45z"/>
	<path class="st1" d="M9.45,5.445h-5.91H9.45z"/>
	<path class="st1" d="M9.45,5.445h-5.91H9.45z"/>
	<path class="st1" d="M9.45,5.445h-5.91H9.45z"/>
	<path class="st1" d="M9.45,5.445h-5.91H9.45z"/>
	<path class="st1" d="M9.45,5.445h-5.91H9.45z"/>
	<path class="st1" d="M9.45,5.445h-5.91H9.45z"/>
	<path class="st1" d="M9.45,5.445h-5.91H9.45z"/>
	<path class="st1" d="M9.45,5.445h-5.91H9.45z"/>
	<path class="st1" d="M9.45,5.445h-5.91H9.45z"/>
	<path class="st1" d="M9.45,5.445h-5.91H9.45z"/>
	<path class="st1" d="M9.45,5.445h-5.91H9.45z"/>
	<path class="st1" d="M9.45,5.445h-5.91H9.45z"/>
	<path class="st1" d="M9.45,5.445h-5.91H9.45z"/>
	<path class="st1" d="M9.45,5.445h-5.91H9.45z"/>
	<path class="st1" d="M9.45,5.445h-5.91H9.45z"/>
	<path class="st1" d="M9.45,5.445h-5.91H9.45z"/>
	<path class="st1" d="M9.45,5.445h-5.91H9.45z"/>
	<path class="st1" d="M9.45,5.445h-5.91H9.45z"/>
	<path class="st1" d="M9.45,5.445h-5.91H9.45z"/>
	<path class="st1" d="M9.45,5.445h-5.91H9.45z"/>
	<path class="st1" d="M9.45,5.445h-5.91H9.45z"/>
	<path class="st1" d="M9.45,5.445h-5.91H9.45z"/>
	<path class="st1" d="M9.45,5.445h-5.91H9.45z"/>
	<path class="st1" d="M9.45,5.445h-5.91H9.45z"/>
	<path class="st1" d="M9.45,5.445h-5.91H9.45z"/>
	<path class="st1" d="M9.45,5.445h-5.91H9.45z"/>
	<path class="st1" d="M9.45,5.445h-5.91H9.45z"/>
	<path class="st1" d="M9.45,5.445h-5.91H9.45z"/>
</g>
<g>
	<path class="st0" d="M9.451,6.222H3.538c-0.424,0-0.766-0.348-0.766-0.775c0-0.432,0.343-0.779,0.766-0.779h5.912
		c0.424,0,0.766,0.348,0.766,0.779C10.217,5.874,9.874,6.222,9.451,6.222"/>
	<line class="st0" x1="3.538" y1="8.556" x2="9.451" y2="8.556"/>
</g>
<g>
	<defs>
		<path id="SVGID_4_" d="M3.538,8.556h5.912H3.538z"/>
	</defs>
	<clipPath id="SVGID_5_">
		<use xlink:href="#SVGID_4_"  style="overflow:visible;"/>
	</clipPath>
	<path class="st2" d="M9.45,8.556h-5.91H9.45z"/>
	<path class="st2" d="M9.45,8.556h-5.91H9.45z"/>
	<path class="st2" d="M9.45,8.556h-5.91H9.45z"/>
	<path class="st2" d="M9.45,8.556h-5.91H9.45z"/>
	<path class="st2" d="M9.45,8.556h-5.91H9.45z"/>
	<path class="st2" d="M9.45,8.556h-5.91H9.45z"/>
	<path class="st2" d="M9.45,8.556h-5.91H9.45z"/>
	<path class="st2" d="M9.45,8.556h-5.91H9.45z"/>
	<path class="st2" d="M9.45,8.556h-5.91H9.45z"/>
	<path class="st2" d="M9.45,8.556h-5.91H9.45z"/>
	<path class="st2" d="M9.45,8.556h-5.91H9.45z"/>
	<path class="st2" d="M9.45,8.556h-5.91H9.45z"/>
	<path class="st2" d="M9.45,8.556h-5.91H9.45z"/>
	<path class="st2" d="M9.45,8.556h-5.91H9.45z"/>
	<path class="st2" d="M9.45,8.556h-5.91H9.45z"/>
	<path class="st2" d="M9.45,8.556h-5.91H9.45z"/>
	<path class="st2" d="M9.45,8.556h-5.91H9.45z"/>
	<path class="st2" d="M9.45,8.556h-5.91H9.45z"/>
	<path class="st2" d="M9.45,8.556h-5.91H9.45z"/>
	<path class="st2" d="M9.45,8.556h-5.91H9.45z"/>
	<path class="st2" d="M9.45,8.556h-5.91H9.45z"/>
	<path class="st2" d="M9.45,8.556h-5.91H9.45z"/>
	<path class="st2" d="M9.45,8.556h-5.91H9.45z"/>
	<path class="st2" d="M9.45,8.556h-5.91H9.45z"/>
	<path class="st2" d="M9.45,8.556h-5.91H9.45z"/>
	<path class="st2" d="M9.45,8.556h-5.91H9.45z"/>
	<path class="st2" d="M9.45,8.556h-5.91H9.45z"/>
	<path class="st2" d="M9.45,8.556h-5.91H9.45z"/>
	<path class="st2" d="M9.45,8.556h-5.91H9.45z"/>
	<path class="st2" d="M9.45,8.556h-5.91H9.45z"/>
	<path class="st2" d="M9.45,8.556h-5.91H9.45z"/>
	<path class="st2" d="M9.45,8.556h-5.91H9.45z"/>
	<path class="st2" d="M9.45,8.556h-5.91H9.45z"/>
	<path class="st2" d="M9.45,8.556h-5.91H9.45z"/>
	<path class="st2" d="M9.45,8.556h-5.91H9.45z"/>
	<path class="st2" d="M9.45,8.556h-5.91H9.45z"/>
	<path class="st2" d="M9.45,8.556h-5.91H9.45z"/>
	<path class="st2" d="M9.45,8.556h-5.91H9.45z"/>
	<path class="st2" d="M9.45,8.556h-5.91H9.45z"/>
	<path class="st2" d="M9.45,8.556h-5.91H9.45z"/>
	<path class="st2" d="M9.45,8.556h-5.91H9.45z"/>
	<path class="st2" d="M9.45,8.556h-5.91H9.45z"/>
	<path class="st2" d="M9.45,8.556h-5.91H9.45z"/>
	<path class="st2" d="M9.45,8.556h-5.91H9.45z"/>
</g>
<g>
	<path class="st0" d="M9.451,9.335H3.538c-0.424,0-0.766-0.35-0.766-0.779c0-0.43,0.343-0.777,0.766-0.777h5.912
		c0.424,0,0.766,0.348,0.766,0.777C10.217,8.985,9.874,9.335,9.451,9.335"/>
	<line class="st0" x1="3.538" y1="11.591" x2="7.703" y2="11.591"/>
</g>
<g>
	<defs>
		<path id="SVGID_6_" d="M3.538,11.591h4.165H3.538z"/>
	</defs>
	<clipPath id="SVGID_7_">
		<use xlink:href="#SVGID_6_"  style="overflow:visible;"/>
	</clipPath>
	<path class="st3" d="M7.703,11.589H3.539H7.703z"/>
	<path class="st3" d="M7.703,11.589H3.539H7.703z"/>
	<path class="st3" d="M7.703,11.589H3.539H7.703z"/>
	<path class="st3" d="M7.703,11.589H3.539H7.703z"/>
	<path class="st3" d="M7.703,11.589H3.539H7.703z"/>
	<path class="st3" d="M7.703,11.589H3.539H7.703z"/>
	<path class="st3" d="M7.703,11.589H3.539H7.703z"/>
	<path class="st3" d="M7.703,11.589H3.539H7.703z"/>
	<path class="st3" d="M7.703,11.589H3.539H7.703z"/>
	<path class="st3" d="M7.703,11.589H3.539H7.703z"/>
	<path class="st3" d="M7.703,11.589H3.539H7.703z"/>
	<path class="st3" d="M7.703,11.589H3.539H7.703z"/>
	<path class="st3" d="M7.703,11.589H3.539H7.703z"/>
	<path class="st3" d="M7.703,11.589H3.539H7.703z"/>
	<path class="st3" d="M7.703,11.589H3.539H7.703z"/>
	<path class="st3" d="M7.703,11.589H3.539H7.703z"/>
	<path class="st3" d="M7.703,11.589H3.539H7.703z"/>
	<path class="st3" d="M7.703,11.589H3.539H7.703z"/>
	<path class="st3" d="M7.703,11.589H3.539H7.703z"/>
	<path class="st3" d="M7.703,11.589H3.539H7.703z"/>
	<path class="st3" d="M7.703,11.589H3.539H7.703z"/>
	<path class="st3" d="M7.703,11.589H3.539H7.703z"/>
	<path class="st3" d="M7.703,11.589H3.539H7.703z"/>
	<path class="st3" d="M7.703,11.589H3.539H7.703z"/>
	<path class="st3" d="M7.703,11.589H3.539H7.703z"/>
	<path class="st3" d="M7.703,11.589H3.539H7.703z"/>
	<path class="st3" d="M7.703,11.589H3.539H7.703z"/>
	<path class="st3" d="M7.703,11.589H3.539H7.703z"/>
	<path class="st3" d="M7.703,11.589H3.539H7.703z"/>
	<path class="st3" d="M7.703,11.589H3.539H7.703z"/>
	<path class="st3" d="M7.703,11.589H3.539H7.703z"/>
	<path class="st3" d="M7.703,11.589H3.539H7.703z"/>
	<path class="st3" d="M7.703,11.589H3.539H7.703z"/>
	<path class="st3" d="M7.703,11.589H3.539H7.703z"/>
	<path class="st3" d="M7.703,11.589H3.539H7.703z"/>
	<path class="st3" d="M7.703,11.589H3.539H7.703z"/>
	<path class="st3" d="M7.703,11.589H3.539H7.703z"/>
	<path class="st3" d="M7.703,11.589H3.539H7.703z"/>
	<path class="st3" d="M7.703,11.589H3.539H7.703z"/>
	<path class="st3" d="M7.703,11.589H3.539H7.703z"/>
	<path class="st3" d="M7.703,11.589H3.539H7.703z"/>
	<path class="st3" d="M7.703,11.589H3.539H7.703z"/>
	<path class="st3" d="M7.703,11.589H3.539H7.703z"/>
	<path class="st3" d="M7.703,11.589H3.539H7.703z"/>
</g>
</svg>
