<?xml version="1.0" encoding="utf-8"?>
<!-- Generator: Adobe Illustrator 17.0.1, SVG Export Plug-In . SVG Version: 6.00 Build 0)  -->
<!DOCTYPE svg PUBLIC "-//W3C//DTD SVG 1.1//EN" "http://www.w3.org/Graphics/SVG/1.1/DTD/svg11.dtd">
<svg version="1.1" id="Layer_1" xmlns="http://www.w3.org/2000/svg" xmlns:xlink="http://www.w3.org/1999/xlink" x="0px" y="0px"
	 width="40px" height="40px" viewBox="0 0 40 40" enable-background="new 0 0 40 40" xml:space="preserve">
<rect fill="#4498C8" width="40" height="40"/>
<rect x="8.233" y="14.856" fill="#FFFFFF" width="5.787" height="15.689"/>
<path fill="#FFFFFF" d="M26.69,14.466c-2.599,0-4.247,0.724-5.331,2.295l-0.075-0.018l-0.196-1.887h-4.989v15.689h5.797v-8.286
	c0-2.504,1.316-3.019,2.306-3.019c1.697,0,1.901,1.268,1.901,3.081v8.224h5.797V19.783C31.899,16.187,29.408,14.466,26.69,14.466"/>
<path fill="#FFFFFF" d="M11.131,7.673c-1.681,0-3.043,1.253-3.043,2.801c0,1.548,1.361,2.801,3.043,2.801
	c1.674,0,3.041-1.253,3.041-2.801C14.171,8.926,12.804,7.673,11.131,7.673"/>
</svg>
