<?xml version="1.0" encoding="utf-8"?>
<!-- Generator: Adobe Illustrator 17.0.1, SVG Export Plug-In . SVG Version: 6.00 Build 0)  -->
<!DOCTYPE svg PUBLIC "-//W3C//DTD SVG 1.1//EN" "http://www.w3.org/Graphics/SVG/1.1/DTD/svg11.dtd">
<svg version="1.1" id="Layer_1" xmlns="http://www.w3.org/2000/svg" xmlns:xlink="http://www.w3.org/1999/xlink" x="0px" y="0px"
	 width="15px" height="15px" viewBox="0 0 15 15" enable-background="new 0 0 15 15" xml:space="preserve">
<path fill-rule="evenodd" clip-rule="evenodd" fill="#FFFFFF" d="M5.494,0c4.376,0.011,7.139,4.127,5.547,7.956
	c-0.328,0.788-0.168,1.159,0.376,1.657c1.024,0.938,2.008,1.918,2.981,2.909c0.748,0.761,0.801,1.543,0.149,2.104
	c-0.722,0.623-1.4,0.41-2.026-0.208c-1.013-1.002-2.067-1.966-3.039-3.004c-0.503-0.536-0.891-0.599-1.586-0.314
	C4.8,12.373,1.23,10.7,0.279,7.604c-1.025-3.332,0.86-6.695,4.199-7.473C4.901,0.032,5.341,0.018,5.494,0 M9.243,5.805
	C9.253,3.839,7.684,2.23,5.738,2.212c-1.832-0.018-3.492,1.64-3.514,3.504C2.203,7.649,3.836,9.294,5.763,9.284
	C7.677,9.274,9.233,7.717,9.243,5.805"/>
</svg>
