<?xml version="1.0" encoding="utf-8"?>
<!-- Generator: Adobe Illustrator 17.0.1, SVG Export Plug-In . SVG Version: 6.00 Build 0)  -->
<!DOCTYPE svg PUBLIC "-//W3C//DTD SVG 1.1//EN" "http://www.w3.org/Graphics/SVG/1.1/DTD/svg11.dtd">
<svg version="1.1" id="Layer_1" xmlns="http://www.w3.org/2000/svg" xmlns:xlink="http://www.w3.org/1999/xlink" x="0px" y="0px"
	 width="20px" height="20px" viewBox="0 0 20 20" enable-background="new 0 0 20 20" xml:space="preserve">
<g>
	<path fill-rule="evenodd" clip-rule="evenodd" fill="#5F9531" d="M7.325,0c5.834,0.013,9.518,5.501,7.396,10.607
		c-0.437,1.051-0.223,1.546,0.501,2.21c1.366,1.25,2.677,2.558,3.974,3.879c0.997,1.015,1.069,2.056,0.2,2.805
		c-0.964,0.831-1.868,0.546-2.703-0.276c-1.351-1.337-2.756-2.622-4.053-4.007c-0.669-0.715-1.189-0.798-2.115-0.419
		c-4.126,1.7-8.885-0.532-10.154-4.659C-0.994,5.695,1.52,1.212,5.973,0.172C6.535,0.041,7.121,0.023,7.325,0z M12.324,7.739
		c0.014-2.623-2.078-4.767-4.672-4.79C5.209,2.926,2.996,5.134,2.966,7.621c-0.028,2.578,2.149,4.771,4.717,4.759
		C10.236,12.365,12.311,10.289,12.324,7.739z"/>
</g>
</svg>
