<?xml version="1.0" encoding="utf-8"?>
<!-- Generator: Adobe Illustrator 17.0.1, SVG Export Plug-In . SVG Version: 6.00 Build 0)  -->
<!DOCTYPE svg PUBLIC "-//W3C//DTD SVG 1.1//EN" "http://www.w3.org/Graphics/SVG/1.1/DTD/svg11.dtd">
<svg version="1.1" id="Layer_1" xmlns="http://www.w3.org/2000/svg" xmlns:xlink="http://www.w3.org/1999/xlink" x="0px" y="0px"
	 width="156px" height="156px" viewBox="0 0 156 156" enable-background="new 0 0 156 156" xml:space="preserve">
<g opacity="0.5">
	<path fill="#5F9531" d="M78.003,0C34.987,0,0,34.984,0,77.999S34.987,156,78.006,156C121.015,156,156,121.014,156,77.999
		S121.015,0,78.003,0z M56.682,63.17l0.156-0.174c0.636-0.462,0.946-1.183,0.83-1.94c-1.571-9.451-0.539-13.392-0.191-14.381
		c2.745-8.428,11.363-12.324,13.054-13.016c0.36-0.141,1.026-0.342,1.701-0.446l0.201-0.049l1.385-0.072l0.011,0.086l0.321-0.029
		c0.286-0.033,0.559-0.07,0.902-0.139l0.305-0.07c0.271,0.006,3.625,0.428,8.609,1.958l3.463,1.191
		c6.337,1.87,9.251,5.353,9.79,6.053c5.075,5.748,3.715,14.426,2.456,19.085c-0.139,0.548-0.056,1.113,0.254,1.582l0.286,0.354
		c0.37,0.497,0.696,2.425-0.404,6.517c-0.209,1.242-0.667,2.251-1.35,2.932c-0.252,0.28-0.426,0.628-0.49,1.027
		c-1.714,10.051-10.721,21.293-20.214,21.293c-8.055,0-17.248-10.342-18.903-21.285c-0.063-0.407-0.233-0.769-0.515-1.078
		c-0.688-0.714-1.128-1.743-1.393-3.264C56.138,66.44,56.059,64.13,56.682,63.17z M38.599,106.756
		c0.35-0.44,2.297-2.723,6.235-4.227c3.463-1.062,12.023-3.906,16.702-7.297c0.22-0.123,0.437-0.348,0.615-0.532
		c0.433-0.465,1.094-1.175,1.879-1.905l0.435-0.413l0.445,0.418c4.122,3.884,8.683,6.016,12.844,6.016
		c4.371,0,8.876-1.891,13.044-5.474l0.327-0.282l0.884,0.43c0.788,0.724,2.154,1.715,2.791,2.017l0.812,0.399l-0.083,0.086
		l0.359,0.221c0.772,0.466,1.607,0.915,2.587,1.397c0.991,0.44,1.819,0.761,2.678,1.04c0.723,0.239,4.575,1.531,8.954,3.556
		l0.839,0.252c4.283,1.639,6.187,3.921,6.374,4.156c5.084,7.538,7.033,21.604,7.759,29.439
		c-13.282,10.786-29.99,16.726-47.07,16.726c-17.087,0-33.797-5.94-47.075-16.73C31.645,128.235,33.578,114.215,38.599,106.756z"/>
</g>
</svg>
