<?xml version="1.0" encoding="utf-8"?>
<!-- Generator: Adobe Illustrator 17.0.1, SVG Export Plug-In . SVG Version: 6.00 Build 0)  -->
<!DOCTYPE svg PUBLIC "-//W3C//DTD SVG 1.1//EN" "http://www.w3.org/Graphics/SVG/1.1/DTD/svg11.dtd">
<svg version="1.1" id="Layer_1" xmlns="http://www.w3.org/2000/svg" xmlns:xlink="http://www.w3.org/1999/xlink" x="0px" y="0px"
	 width="40px" height="140px" viewBox="0 0 40 140" enable-background="new 0 0 40 140" xml:space="preserve">
<rect fill="#F7931E" width="40" height="140"/>
<g>
	<path fill="#FFFFFF" d="M25.883,22.217c-0.229,0-0.438-0.036-0.624-0.108c-0.187-0.071-0.351-0.185-0.489-0.339
		c-0.141-0.154-0.248-0.357-0.324-0.608c-0.074-0.252-0.113-0.553-0.113-0.905v-3.747l-2.595-0.441
		c0.05,0.294,0.088,0.577,0.113,0.851c0.024,0.272,0.038,0.538,0.038,0.797c0,0.825-0.127,1.555-0.377,2.187
		c-0.252,0.631-0.595,1.163-1.029,1.594c-0.434,0.431-0.943,0.755-1.529,0.975c-0.585,0.219-1.211,0.328-1.879,0.328
		c-0.84,0-1.606-0.149-2.299-0.447c-0.693-0.298-1.291-0.712-1.793-1.243c-0.503-0.531-0.893-1.165-1.169-1.901
		c-0.276-0.735-0.415-1.542-0.415-2.417c0-0.51,0.055-0.996,0.162-1.46c0.107-0.463,0.253-0.897,0.436-1.303
		c0.184-0.405,0.396-0.78,0.636-1.125c0.241-0.345,0.497-0.657,0.771-0.938l1.378,1.034c0.144,0.107,0.253,0.233,0.329,0.377
		c0.074,0.144,0.113,0.298,0.113,0.463c0,0.216-0.061,0.418-0.178,0.608c-0.119,0.19-0.248,0.398-0.389,0.625
		c-0.14,0.226-0.268,0.489-0.382,0.791c-0.115,0.302-0.173,0.675-0.173,1.12s0.074,0.825,0.221,1.142
		c0.147,0.315,0.349,0.572,0.604,0.771c0.255,0.197,0.553,0.341,0.895,0.431c0.34,0.089,0.705,0.134,1.092,0.134
		c0.762,0,1.342-0.215,1.74-0.646s0.598-1.041,0.598-1.831c0-0.703-0.133-1.393-0.398-2.067l0.56-2.067l7.851,1.335v8.034H25.883z"
		/>
	<path fill="#FFFFFF" d="M19.422,36.238c-1.371,0-2.56-0.147-3.564-0.441c-1.006-0.295-1.838-0.702-2.498-1.223
		c-0.661-0.521-1.152-1.138-1.476-1.853c-0.323-0.714-0.485-1.487-0.485-2.32s0.162-1.603,0.485-2.31
		c0.323-0.708,0.814-1.319,1.476-1.837c0.66-0.517,1.492-0.921,2.498-1.211c1.005-0.291,2.193-0.437,3.564-0.437
		s2.56,0.146,3.564,0.437c1.006,0.29,1.838,0.694,2.498,1.211c0.661,0.518,1.15,1.129,1.471,1.837
		c0.319,0.707,0.479,1.477,0.479,2.31s-0.159,1.606-0.479,2.32c-0.32,0.715-0.81,1.332-1.471,1.853
		c-0.66,0.521-1.492,0.928-2.498,1.223C21.981,36.091,20.793,36.238,19.422,36.238z M19.422,32.792c1.084,0,1.973-0.068,2.666-0.204
		c0.692-0.137,1.236-0.318,1.631-0.544c0.395-0.227,0.666-0.483,0.813-0.771c0.148-0.287,0.221-0.578,0.221-0.872
		c0-0.295-0.072-0.583-0.221-0.867c-0.146-0.283-0.418-0.535-0.813-0.754s-0.938-0.395-1.631-0.527
		c-0.693-0.133-1.582-0.199-2.666-0.199c-1.092,0-1.981,0.066-2.67,0.199c-0.689,0.133-1.234,0.309-1.633,0.527
		s-0.671,0.471-0.818,0.754c-0.146,0.284-0.221,0.572-0.221,0.867c0,0.294,0.074,0.585,0.221,0.872
		c0.147,0.287,0.42,0.544,0.818,0.771c0.398,0.226,0.943,0.407,1.633,0.544C17.44,32.724,18.33,32.792,19.422,32.792z"/>
	<path fill="#FFFFFF" d="M15.254,53.964c-0.574,0-1.1-0.104-1.577-0.313s-0.887-0.484-1.228-0.829
		c-0.342-0.345-0.605-0.745-0.792-1.201s-0.28-0.932-0.28-1.427c0-0.546,0.094-1.047,0.28-1.502c0.187-0.456,0.45-0.851,0.792-1.185
		c0.341-0.334,0.75-0.595,1.228-0.781s1.003-0.28,1.577-0.28c0.596,0,1.137,0.094,1.621,0.28s0.899,0.447,1.244,0.781
		c0.344,0.334,0.611,0.729,0.803,1.185c0.189,0.455,0.285,0.956,0.285,1.502s-0.096,1.05-0.285,1.513
		c-0.191,0.464-0.459,0.862-0.803,1.195c-0.345,0.334-0.76,0.595-1.244,0.781S15.85,53.964,15.254,53.964z M26.767,49.871
		c0.122,0.108,0.235,0.24,0.339,0.398s0.156,0.377,0.156,0.657v2.434L12.045,41.536c-0.137-0.107-0.25-0.242-0.339-0.404
		c-0.09-0.161-0.135-0.356-0.135-0.587v-2.498L26.767,49.871z M15.254,51.4c0.359,0,0.659-0.03,0.899-0.092
		c0.241-0.061,0.433-0.145,0.576-0.253c0.144-0.107,0.244-0.235,0.302-0.382c0.057-0.147,0.086-0.307,0.086-0.479
		c0-0.172-0.029-0.33-0.086-0.474c-0.058-0.144-0.158-0.266-0.302-0.366s-0.335-0.18-0.576-0.237
		c-0.24-0.058-0.54-0.086-0.899-0.086c-0.344,0-0.631,0.028-0.861,0.086c-0.229,0.058-0.412,0.137-0.549,0.237
		s-0.233,0.223-0.291,0.366s-0.086,0.302-0.086,0.474c0,0.173,0.028,0.332,0.086,0.479c0.058,0.146,0.154,0.274,0.291,0.382
		c0.137,0.108,0.319,0.192,0.549,0.253C14.623,51.37,14.91,51.4,15.254,51.4z M23.461,44.939c-0.575,0-1.1-0.104-1.572-0.313
		c-0.475-0.208-0.882-0.484-1.223-0.829c-0.342-0.345-0.605-0.745-0.792-1.201s-0.28-0.932-0.28-1.427
		c0-0.546,0.094-1.047,0.28-1.502c0.187-0.456,0.45-0.852,0.792-1.185c0.341-0.334,0.748-0.595,1.223-0.781
		c0.473-0.187,0.997-0.28,1.572-0.28c0.596,0,1.136,0.094,1.62,0.28c0.485,0.187,0.899,0.447,1.244,0.781
		c0.345,0.333,0.612,0.729,0.802,1.185c0.19,0.455,0.285,0.956,0.285,1.502s-0.095,1.05-0.285,1.513
		c-0.189,0.464-0.457,0.862-0.802,1.195c-0.345,0.334-0.759,0.595-1.244,0.781C24.597,44.846,24.057,44.939,23.461,44.939z
		 M23.461,42.376c0.365,0,0.669-0.03,0.91-0.092c0.24-0.061,0.432-0.146,0.575-0.253s0.244-0.235,0.302-0.382
		c0.058-0.147,0.086-0.308,0.086-0.479s-0.028-0.33-0.086-0.474s-0.158-0.266-0.302-0.366s-0.335-0.18-0.575-0.237
		c-0.241-0.058-0.545-0.086-0.91-0.086c-0.346,0-0.633,0.028-0.862,0.086s-0.413,0.137-0.549,0.237
		c-0.137,0.101-0.233,0.223-0.291,0.366s-0.086,0.302-0.086,0.474s0.028,0.332,0.086,0.479c0.058,0.146,0.154,0.274,0.291,0.382
		c0.136,0.107,0.319,0.192,0.549,0.253C22.828,42.346,23.115,42.376,23.461,42.376z"/>
</g>
<g>
	<path fill="#FFFFFF" d="M19.281,75.297c-1.155,0-2.216-0.183-3.182-0.549s-1.797-0.883-2.493-1.551s-1.236-1.47-1.62-2.407
		c-0.385-0.937-0.576-1.972-0.576-3.106s0.191-2.168,0.576-3.102c0.384-0.934,0.924-1.733,1.62-2.401s1.527-1.185,2.493-1.551
		s2.026-0.549,3.182-0.549c1.156,0,2.217,0.183,3.184,0.549c0.965,0.366,1.798,0.883,2.498,1.551
		c0.699,0.668,1.244,1.468,1.631,2.401c0.389,0.934,0.582,1.967,0.582,3.102s-0.193,2.17-0.582,3.106
		c-0.387,0.938-0.932,1.739-1.631,2.407c-0.7,0.668-1.533,1.185-2.498,1.551C21.498,75.114,20.438,75.297,19.281,75.297z
		 M19.281,73.154c0.948,0,1.799-0.129,2.553-0.388s1.391-0.625,1.912-1.099c0.52-0.474,0.92-1.048,1.2-1.723
		s0.421-1.429,0.421-2.262c0-0.826-0.141-1.576-0.421-2.251s-0.681-1.251-1.2-1.729c-0.521-0.478-1.158-0.845-1.912-1.104
		s-1.604-0.388-2.553-0.388c-0.947,0-1.796,0.129-2.547,0.388c-0.75,0.259-1.385,0.626-1.905,1.104
		c-0.521,0.478-0.919,1.054-1.195,1.729s-0.415,1.425-0.415,2.251c0,0.833,0.139,1.587,0.415,2.262s0.675,1.249,1.195,1.723
		s1.155,0.84,1.905,1.099C17.485,73.025,18.334,73.154,19.281,73.154z"/>
	<path fill="#FFFFFF" d="M27.004,87.876h-1.702v-7.409h-5.396v6.332h-1.701v-6.332h-6.634v-2.1h15.433V87.876z"/>
	<path fill="#FFFFFF" d="M27.004,100.281h-1.702v-7.409h-5.396v6.332h-1.701v-6.332h-6.634v-2.1h15.433V100.281z"/>
	<path fill="#FFFFFF" d="M12.756,103.631c0.187,0,0.362,0.034,0.527,0.103c0.166,0.068,0.309,0.161,0.432,0.279
		c0.121,0.119,0.219,0.261,0.29,0.426s0.108,0.341,0.108,0.527c0,0.188-0.037,0.363-0.108,0.528s-0.169,0.309-0.29,0.431
		c-0.123,0.122-0.266,0.217-0.432,0.285c-0.165,0.068-0.341,0.103-0.527,0.103c-0.193,0-0.371-0.034-0.533-0.103
		c-0.161-0.068-0.303-0.163-0.426-0.285c-0.121-0.122-0.217-0.266-0.285-0.431s-0.102-0.341-0.102-0.528
		c0-0.187,0.033-0.362,0.102-0.527s0.164-0.307,0.285-0.426c0.123-0.118,0.265-0.211,0.426-0.279
		C12.385,103.665,12.563,103.631,12.756,103.631z M27.004,105.914h-6.16c-0.323,0-0.639-0.006-0.947-0.017
		c-0.31-0.011-0.62-0.026-0.932-0.048c-0.313-0.021-0.633-0.049-0.959-0.081s-0.677-0.07-1.05-0.113v-1.303
		c0.373-0.043,0.724-0.081,1.05-0.113s0.646-0.06,0.959-0.081c0.312-0.021,0.622-0.037,0.932-0.048
		c0.309-0.011,0.624-0.017,0.947-0.017h6.16V105.914z"/>
</g>
<path fill="#FFFFFF" d="M23.359,117.915c0.205-0.206,0.205-0.541,0-0.747c-0.203-0.206-0.535-0.206-0.738,0l-5.984,6.043
	c-0.205,0.206-0.205,0.542,0,0.749l5.984,6.042c0.203,0.206,0.535,0.206,0.738,0c0.205-0.206,0.205-0.541,0.002-0.747l-5.457-5.67
	L23.359,117.915z"/>
<path fill="none" stroke="#FFFFFF" d="M23.359,117.915c0.205-0.206,0.205-0.541,0-0.747c-0.203-0.206-0.535-0.206-0.738,0
	l-5.984,6.043c-0.205,0.206-0.205,0.542,0,0.749l5.984,6.042c0.203,0.206,0.535,0.206,0.738,0c0.205-0.206,0.205-0.541,0.002-0.747
	l-5.457-5.67L23.359,117.915z"/>
</svg>
