<?xml version="1.0" encoding="utf-8"?>
<!-- Generator: Adobe Illustrator 17.1.0, SVG Export Plug-In . SVG Version: 6.00 Build 0)  -->
<!DOCTYPE svg PUBLIC "-//W3C//DTD SVG 1.1//EN" "http://www.w3.org/Graphics/SVG/1.1/DTD/svg11.dtd">
<svg version="1.1" id="Layer_1" xmlns="http://www.w3.org/2000/svg" xmlns:xlink="http://www.w3.org/1999/xlink" x="0px" y="0px"
	 viewBox="0 0 110 30" style="enable-background:new 0 0 110 30;" xml:space="preserve">
<style type="text/css">
	.Drop_x0020_Shadow{fill:none;}
	.Round_x0020_Corners_x0020_2_x0020_pt{fill:#FFFFFF;stroke:#000000;stroke-miterlimit:10;}
	.Live_x0020_Reflect_x0020_X{fill:none;}
	.Bevel_x0020_Soft{fill:url(#SVGID_1_);}
	.Dusk{fill:#FFFFFF;}
	.Foliage_GS{fill:#FFDD00;}
	.Pompadour_GS{fill-rule:evenodd;clip-rule:evenodd;fill:#44ADE2;}
	.st0{fill:#5F9640;}
	.st1{fill:#F79421;}
	.st2{fill:#FFFFFF;}
	.st3{fill:none;stroke:#FFFFFF;}
</style>
<linearGradient id="SVGID_1_" gradientUnits="userSpaceOnUse" x1="0" y1="0" x2="0.7071" y2="0.7071">
	<stop  offset="0" style="stop-color:#DEDFE3"/>
	<stop  offset="0.1738" style="stop-color:#D8D9DD"/>
	<stop  offset="0.352" style="stop-color:#C9CACD"/>
	<stop  offset="0.5323" style="stop-color:#B4B5B8"/>
	<stop  offset="0.7139" style="stop-color:#989A9C"/>
	<stop  offset="0.8949" style="stop-color:#797C7E"/>
	<stop  offset="1" style="stop-color:#656B6C"/>
</linearGradient>
<rect y="0" class="st0" width="109.661" height="30"/>
<rect x="80.105" y="0" class="st1" width="30" height="30"/>
<path class="st2" d="M91.743,20.67c-0.205,0.207-0.205,0.541,0,0.748c0.203,0.205,0.535,0.205,0.739,0l5.984-6.043
	c0.205-0.207,0.205-0.543,0-0.75l-5.984-6.041c-0.204-0.207-0.535-0.207-0.739,0c-0.205,0.205-0.205,0.541-0.001,0.746L97.199,15
	L91.743,20.67z"/>
<path class="st3" d="M91.743,20.67c-0.205,0.207-0.205,0.541,0,0.748c0.203,0.205,0.535,0.205,0.739,0l5.984-6.043
	c0.205-0.207,0.205-0.543,0-0.75l-5.984-6.041c-0.204-0.207-0.535-0.207-0.739,0c-0.205,0.205-0.205,0.541-0.001,0.746L97.199,15
	L91.743,20.67z"/>
<g>
	<path class="st2" d="M10.484,18.766v-7.874h2.379l1.429,5.371l1.413-5.371h2.385v7.874h-1.478v-6.198l-1.563,6.198h-1.53
		l-1.558-6.198v6.198H10.484z"/>
	<path class="st2" d="M19.309,15.833c0-0.501,0.124-0.986,0.37-1.456c0.248-0.469,0.598-0.826,1.051-1.074
		c0.453-0.246,0.959-0.37,1.518-0.37c0.862,0,1.569,0.28,2.121,0.841s0.827,1.269,0.827,2.124c0,0.863-0.278,1.578-0.835,2.146
		s-1.258,0.852-2.104,0.852c-0.522,0-1.021-0.118-1.495-0.354s-0.835-0.583-1.083-1.039C19.433,17.044,19.309,16.488,19.309,15.833z
		 M20.855,15.914c0,0.565,0.134,0.998,0.403,1.299c0.268,0.301,0.6,0.451,0.993,0.451s0.725-0.15,0.991-0.451s0.4-0.737,0.4-1.311
		c0-0.559-0.134-0.988-0.4-1.289s-0.598-0.451-0.991-0.451s-0.726,0.15-0.993,0.451C20.989,14.914,20.855,15.348,20.855,15.914z"/>
	<path class="st2" d="M27.821,18.766h-1.51v-5.704h1.402v0.812c0.24-0.384,0.456-0.636,0.647-0.758s0.409-0.183,0.652-0.183
		c0.344,0,0.675,0.095,0.993,0.284l-0.467,1.316c-0.254-0.165-0.49-0.247-0.709-0.247c-0.211,0-0.391,0.059-0.537,0.175
		s-0.263,0.326-0.347,0.631s-0.126,0.941-0.126,1.912V18.766z"/>
	<path class="st2" d="M33.961,16.95l1.504,0.253c-0.193,0.551-0.499,0.971-0.916,1.259s-0.938,0.433-1.565,0.433
		c-0.992,0-1.726-0.324-2.202-0.973c-0.376-0.519-0.563-1.174-0.563-1.965c0-0.945,0.246-1.687,0.74-2.222s1.119-0.803,1.875-0.803
		c0.849,0,1.519,0.28,2.009,0.841s0.726,1.419,0.704,2.575h-3.781c0.01,0.447,0.132,0.796,0.365,1.045
		c0.232,0.249,0.522,0.373,0.869,0.373c0.236,0,0.436-0.064,0.597-0.193S33.879,17.236,33.961,16.95z M34.047,15.425
		c-0.011-0.437-0.124-0.769-0.339-0.996s-0.476-0.341-0.783-0.341c-0.33,0-0.602,0.119-0.816,0.359s-0.321,0.565-0.317,0.978H34.047
		z"/>
	<path class="st2" d="M39.794,18.766v-7.874h1.59v7.874H39.794z"/>
	<path class="st2" d="M48.077,18.766h-1.51v-2.911c0-0.616-0.032-1.015-0.097-1.195s-0.169-0.321-0.314-0.421
		c-0.145-0.101-0.319-0.15-0.523-0.15c-0.262,0-0.496,0.071-0.704,0.215c-0.207,0.143-0.35,0.332-0.427,0.568
		s-0.115,0.674-0.115,1.311v2.584h-1.509v-5.704h1.401v0.838c0.498-0.645,1.124-0.967,1.88-0.967c0.333,0,0.638,0.06,0.913,0.18
		s0.484,0.273,0.626,0.46c0.142,0.186,0.239,0.396,0.295,0.633s0.084,0.575,0.084,1.016V18.766z"/>
	<path class="st2" d="M48.946,13.062h0.838v-0.43c0-0.479,0.051-0.838,0.153-1.074c0.102-0.236,0.29-0.429,0.563-0.577
		c0.274-0.148,0.621-0.223,1.039-0.223c0.43,0,0.851,0.064,1.263,0.193l-0.204,1.053c-0.24-0.058-0.471-0.086-0.693-0.086
		c-0.218,0-0.375,0.051-0.47,0.152c-0.095,0.103-0.142,0.299-0.142,0.588v0.403h1.127v1.187h-1.127v4.518h-1.51v-4.518h-0.838
		V13.062z"/>
	<path class="st2" d="M52.921,15.833c0-0.501,0.124-0.986,0.37-1.456c0.248-0.469,0.598-0.826,1.051-1.074
		c0.453-0.246,0.959-0.37,1.518-0.37c0.862,0,1.569,0.28,2.121,0.841s0.827,1.269,0.827,2.124c0,0.863-0.278,1.578-0.835,2.146
		s-1.258,0.852-2.104,0.852c-0.522,0-1.021-0.118-1.495-0.354s-0.835-0.583-1.083-1.039C53.045,17.044,52.921,16.488,52.921,15.833z
		 M54.468,15.914c0,0.565,0.134,0.998,0.403,1.299c0.268,0.301,0.6,0.451,0.993,0.451s0.725-0.15,0.991-0.451s0.4-0.737,0.4-1.311
		c0-0.559-0.134-0.988-0.4-1.289s-0.598-0.451-0.991-0.451s-0.726,0.15-0.993,0.451C54.602,14.914,54.468,15.348,54.468,15.914z"/>
</g>
</svg>
