<?xml version="1.0" encoding="utf-8"?>
<!-- Generator: Adobe Illustrator 17.0.1, SVG Export Plug-In . SVG Version: 6.00 Build 0)  -->
<!DOCTYPE svg PUBLIC "-//W3C//DTD SVG 1.1//EN" "http://www.w3.org/Graphics/SVG/1.1/DTD/svg11.dtd">
<svg version="1.1" id="Layer_1" xmlns="http://www.w3.org/2000/svg" xmlns:xlink="http://www.w3.org/1999/xlink" x="0px" y="0px"
	 width="35px" height="28px" viewBox="0 0 35 28" enable-background="new 0 0 35 28" xml:space="preserve">
<path fill="#FFFFFF" d="M34.037,0.066C33.384,0.295,1.09,11.614,0.454,11.836c-0.54,0.19-0.66,0.653-0.018,0.908
	c0.763,0.304,7.22,2.877,7.22,2.877H7.655l4.282,1.707c0,0,20.614-15.058,20.895-15.262c0.28-0.205,0.604,0.18,0.4,0.4
	c-0.204,0.221-14.973,16.107-14.973,16.107s-0.001,0-0.001,0.001l-0.861,0.952l1.139,0.61v0.001c0,0,8.846,4.735,9.476,5.073
	c0.552,0.295,1.271,0.05,1.431-0.633C29.63,23.77,34.853,1.379,34.97,0.881C35.121,0.232,34.691-0.163,34.037,0.066z M11.896,27.549
	c0,0.468,0.264,0.597,0.629,0.267c0.477-0.43,5.42-4.843,5.42-4.843l-6.049-3.112V27.549z"/>
</svg>
