<?xml version="1.0" encoding="utf-8"?>
<!-- Generator: Adobe Illustrator 17.0.1, SVG Export Plug-In . SVG Version: 6.00 Build 0)  -->
<!DOCTYPE svg PUBLIC "-//W3C//DTD SVG 1.1//EN" "http://www.w3.org/Graphics/SVG/1.1/DTD/svg11.dtd">
<svg version="1.1" id="Layer_1" xmlns="http://www.w3.org/2000/svg" xmlns:xlink="http://www.w3.org/1999/xlink" x="0px" y="0px"
	 width="18px" height="16px" viewBox="0 0 18 16" enable-background="new 0 0 18 16" xml:space="preserve">
<path fill="#FFFFFF" d="M18,16c0,0-0.035-3.442-0.244-3.799c-0.309-0.531-1.03-0.897-2.37-1.462c-1.335-0.563-1.76-1.039-1.76-2.057
	c0-0.612,0.406-0.413,0.586-1.531c0.074-0.464,0.434-0.008,0.502-1.068c0-0.422-0.196-0.527-0.196-0.527s0.099-0.625,0.139-1.107
	c0.048-0.6-0.299-2.148-2.153-2.148c-1.854,0-2.199,1.548-2.152,2.148c0.04,0.481,0.139,1.107,0.139,1.107s-0.196,0.105-0.196,0.527
	c0.069,1.06,0.43,0.604,0.503,1.068c0.18,1.118,0.587,0.919,0.587,1.531c0,0.692-0.198,1.133-0.744,1.523
	c2.917,1.474,3.308,1.774,3.308,3.094V16H18z M9.201,11.251c-1.779-0.753-2.35-1.386-2.35-2.742c0-0.816,0.543-0.55,0.782-2.042
	c0.099-0.62,0.58-0.01,0.672-1.423c0-0.563-0.261-0.704-0.261-0.704s0.131-0.833,0.184-1.475C8.294,2.065,7.83,0,5.36,0
	C2.889,0,2.425,2.065,2.49,2.865C2.542,3.507,2.675,4.34,2.675,4.34S2.414,4.48,2.414,5.044c0.091,1.414,0.571,0.804,0.671,1.423
	c0.239,1.492,0.781,1.226,0.781,2.042c0,1.357-0.568,1.99-2.348,2.742C0.974,11.479,0,11.835,0,12.688V16h12.504v-2.482
	C12.504,12.738,10.988,12.004,9.201,11.251"/>
</svg>
