<?xml version="1.0" encoding="utf-8"?>
<!-- Generator: Adobe Illustrator 17.1.0, SVG Export Plug-In . SVG Version: 6.00 Build 0)  -->
<!DOCTYPE svg PUBLIC "-//W3C//DTD SVG 1.1//EN" "http://www.w3.org/Graphics/SVG/1.1/DTD/svg11.dtd">
<svg version="1.1" id="Layer_1" xmlns="http://www.w3.org/2000/svg" xmlns:xlink="http://www.w3.org/1999/xlink" x="0px" y="0px"
	 viewBox="0 0 20 25" style="enable-background:new 0 0 20 25;" xml:space="preserve">
<style type="text/css">
	.Drop_x0020_Shadow{fill:none;}
	.Round_x0020_Corners_x0020_2_x0020_pt{fill:#FFFFFF;stroke:#000000;stroke-miterlimit:10;}
	.Live_x0020_Reflect_x0020_X{fill:none;}
	.Bevel_x0020_Soft{fill:url(#SVGID_1_);}
	.Dusk{fill:#FFFFFF;}
	.Foliage_GS{fill:#FFDD00;}
	.Pompadour_GS{fill-rule:evenodd;clip-rule:evenodd;fill:#44ADE2;}
	.st0{fill:#5F9640;}
</style>
<linearGradient id="SVGID_1_" gradientUnits="userSpaceOnUse" x1="0" y1="0" x2="0.7071" y2="0.7071">
	<stop  offset="0" style="stop-color:#DEDFE3"/>
	<stop  offset="0.1738" style="stop-color:#D8D9DD"/>
	<stop  offset="0.352" style="stop-color:#C9CACD"/>
	<stop  offset="0.5323" style="stop-color:#B4B5B8"/>
	<stop  offset="0.7139" style="stop-color:#989A9C"/>
	<stop  offset="0.8949" style="stop-color:#797C7E"/>
	<stop  offset="1" style="stop-color:#656B6C"/>
</linearGradient>
<polygon class="st0" points="8.001,24.994 6.381,22.471 3.934,24.097 5.728,15.448 9.793,16.345 "/>
<polygon class="st0" points="16.064,24.068 13.555,22.475 12.007,25 10.147,16.602 14.206,15.669 "/>
<path class="st0" d="M17.904,7.129c-0.301-0.942,0.745-2.596,0.188-3.38c-0.565-0.792-2.433-0.285-3.209-0.861
	c-0.768-0.573-0.869-2.545-1.792-2.849C12.199-0.26,10.986,1.267,10,1.267c-0.988,0-2.2-1.527-3.091-1.229
	C5.984,0.343,5.885,2.314,5.117,2.885C4.341,3.464,2.475,2.957,1.909,3.749C1.35,4.533,2.396,6.187,2.097,7.129
	C1.808,8.04,0,8.743,0,9.75c0,1.01,1.808,1.715,2.097,2.624c0.299,0.942-0.747,2.596-0.189,3.38
	c0.565,0.792,2.433,0.284,3.209,0.861c0.767,0.571,0.867,2.542,1.792,2.849C7.8,19.761,9.012,18.234,10,18.234
	c0.987,0,2.2,1.527,3.092,1.231c0.923-0.306,1.022-2.278,1.792-2.849c0.776-0.577,2.642-0.069,3.209-0.861
	c0.557-0.784-0.489-2.438-0.188-3.38C18.192,11.465,20,10.76,20,9.75C20,8.743,18.192,8.04,17.904,7.129 M10,15.871
	c-3.311,0-5.996-2.74-5.996-6.12c0-3.38,2.684-6.12,5.996-6.12c3.31,0,5.996,2.74,5.996,6.12C15.995,13.131,13.31,15.871,10,15.871"
	/>
<path class="st0" d="M6.789,11.904V8.018H6.34c-0.169,0-0.298-0.053-0.384-0.158c-0.087-0.105-0.13-0.229-0.13-0.375
	c0-0.144,0.047-0.269,0.139-0.375c0.092-0.107,0.218-0.16,0.374-0.16h1.077c0.159,0,0.283,0.051,0.373,0.152
	c0.09,0.103,0.134,0.233,0.134,0.395v4.406c0,0.194-0.051,0.342-0.156,0.445c-0.106,0.105-0.242,0.158-0.409,0.158
	c-0.166,0-0.302-0.053-0.409-0.162C6.842,12.236,6.789,12.09,6.789,11.904"/>
<path class="st0" d="M11.498,9.055c0,0.126-0.044,0.241-0.13,0.344c-0.085,0.099-0.19,0.15-0.316,0.15
	c-0.057,0-0.164-0.036-0.323-0.109c-0.16-0.075-0.282-0.128-0.369-0.164c-0.087-0.036-0.184-0.053-0.287-0.053
	c-0.107,0-0.197,0.026-0.265,0.081c-0.073,0.051-0.107,0.13-0.107,0.231c0,0.107,0.11,0.209,0.327,0.306
	c0.218,0.099,0.447,0.196,0.692,0.298c0.241,0.101,0.449,0.239,0.619,0.409c0.174,0.172,0.258,0.403,0.258,0.693
	c0,0.249-0.064,0.47-0.192,0.67c-0.127,0.199-0.311,0.356-0.551,0.47c-0.236,0.113-0.508,0.17-0.811,0.17
	c-0.214,0-0.44-0.036-0.679-0.113c-0.238-0.075-0.44-0.18-0.603-0.312c-0.164-0.136-0.244-0.279-0.244-0.435
	c0-0.101,0.045-0.209,0.132-0.324c0.088-0.115,0.2-0.172,0.34-0.172c0.098,0,0.186,0.016,0.257,0.047
	c0.074,0.03,0.169,0.081,0.281,0.146c0.112,0.063,0.209,0.113,0.292,0.14c0.083,0.034,0.184,0.047,0.303,0.047
	c0.159,0,0.272-0.026,0.335-0.077c0.062-0.053,0.095-0.132,0.095-0.239c0-0.109-0.106-0.211-0.314-0.302
	c-0.211-0.095-0.441-0.194-0.694-0.298c-0.252-0.107-0.461-0.247-0.633-0.421C8.74,10.067,8.654,9.835,8.654,9.549
	c0-0.257,0.063-0.48,0.188-0.676c0.127-0.198,0.303-0.352,0.527-0.46c0.223-0.111,0.48-0.164,0.765-0.164
	c0.2,0,0.404,0.03,0.614,0.091c0.211,0.059,0.387,0.152,0.531,0.275C11.423,8.739,11.498,8.885,11.498,9.055"/>
<path class="st0" d="M12.249,11.884v-2.57h-0.245c-0.142,0-0.259-0.045-0.346-0.134s-0.131-0.207-0.131-0.356
	c0-0.138,0.045-0.253,0.137-0.346c0.09-0.093,0.204-0.138,0.34-0.138h0.245V7.674c0-0.186,0.049-0.334,0.149-0.448
	c0.101-0.115,0.231-0.172,0.395-0.172c0.106,0,0.201,0.026,0.282,0.079c0.083,0.049,0.148,0.124,0.194,0.219
	c0.047,0.093,0.071,0.201,0.071,0.322V8.34h0.312c0.149,0,0.275,0.038,0.373,0.117c0.099,0.079,0.147,0.201,0.147,0.367
	c0,0.166-0.047,0.288-0.144,0.369c-0.098,0.079-0.222,0.12-0.376,0.12H13.34v2.57c0,0.121-0.023,0.227-0.071,0.324
	c-0.046,0.093-0.112,0.166-0.195,0.217c-0.084,0.053-0.177,0.079-0.282,0.079c-0.164,0-0.294-0.059-0.395-0.172
	C12.298,12.216,12.249,12.068,12.249,11.884"/>
</svg>
