<?xml version="1.0" encoding="utf-8"?>
<!-- Generator: Adobe Illustrator 17.0.1, SVG Export Plug-In . SVG Version: 6.00 Build 0)  -->
<!DOCTYPE svg PUBLIC "-//W3C//DTD SVG 1.1//EN" "http://www.w3.org/Graphics/SVG/1.1/DTD/svg11.dtd">
<svg version="1.1" id="Layer_1" xmlns="http://www.w3.org/2000/svg" xmlns:xlink="http://www.w3.org/1999/xlink" x="0px" y="0px"
	 width="20px" height="20px" viewBox="0 0 20 20" enable-background="new 0 0 20 20" xml:space="preserve">
<path fill="#5F9531" d="M17.903,7.311c-0.3-0.966,0.745-2.662,0.188-3.466c-0.564-0.812-2.433-0.292-3.209-0.883
	c-0.768-0.588-0.868-2.609-1.791-2.921C12.199-0.266,10.986,1.3,10,1.3c-0.988,0-2.2-1.566-3.091-1.26
	C5.984,0.352,5.885,2.374,5.117,2.959C4.341,3.553,2.475,3.032,1.909,3.844c-0.558,0.804,0.487,2.5,0.189,3.466
	C1.808,8.245,0,8.966,0,9.999c0,1.035,1.808,1.759,2.098,2.691c0.298,0.966-0.747,2.662-0.189,3.466
	c0.564,0.812,2.432,0.292,3.208,0.883c0.768,0.585,0.867,2.607,1.792,2.921C7.8,20.265,9.012,18.699,10,18.699
	c0.987,0,2.2,1.566,3.092,1.262c0.923-0.314,1.022-2.336,1.791-2.921c0.776-0.592,2.642-0.071,3.209-0.883
	c0.557-0.804-0.488-2.5-0.188-3.466C18.192,11.758,20,11.034,20,9.999C20,8.966,18.192,8.245,17.903,7.311 M10,16.276
	c-3.311,0-5.995-2.81-5.995-6.276c0-3.466,2.684-6.276,5.995-6.276c3.31,0,5.995,2.81,5.995,6.276
	C15.995,13.466,13.31,16.276,10,16.276"/>
</svg>
