<?xml version="1.0" encoding="utf-8"?>
<!-- Generator: Adobe Illustrator 17.0.1, SVG Export Plug-In . SVG Version: 6.00 Build 0)  -->
<!DOCTYPE svg PUBLIC "-//W3C//DTD SVG 1.1//EN" "http://www.w3.org/Graphics/SVG/1.1/DTD/svg11.dtd">
<svg version="1.1" id="Layer_1" xmlns="http://www.w3.org/2000/svg" xmlns:xlink="http://www.w3.org/1999/xlink" x="0px" y="0px"
	 width="30px" height="30px" viewBox="0 0 30 30" enable-background="new 0 0 30 30" xml:space="preserve">
<g>
	<path fill="#5F9531" d="M15,0C6.728,0,0,6.727,0,15c0,8.272,6.728,15,15.001,15C23.272,30,30,23.271,30,15C30,6.727,23.272,0,15,0z
		 M10.9,12.148l0.03-0.033c0.122-0.089,0.182-0.227,0.16-0.373c-0.302-1.817-0.104-2.575-0.037-2.766
		c0.528-1.621,2.186-2.37,2.511-2.503c0.069-0.027,0.197-0.066,0.327-0.085l0.039-0.01l0.266-0.014l0.002,0.017l0.062-0.006
		c0.055-0.006,0.107-0.014,0.173-0.027l0.059-0.013c0.052,0.001,0.697,0.082,1.655,0.376l0.666,0.229
		c1.219,0.359,1.779,1.029,1.883,1.164c0.976,1.105,0.714,2.774,0.472,3.67c-0.027,0.106-0.011,0.214,0.049,0.305l0.055,0.068
		c0.071,0.096,0.134,0.466-0.078,1.253c-0.04,0.239-0.128,0.433-0.26,0.563c-0.048,0.054-0.082,0.121-0.094,0.198
		c-0.33,1.933-2.062,4.095-3.887,4.095c-1.549,0-3.317-1.989-3.635-4.093c-0.012-0.078-0.044-0.148-0.099-0.208
		c-0.132-0.137-0.217-0.335-0.268-0.627C10.796,12.777,10.781,12.333,10.9,12.148z M7.423,20.53
		c0.067-0.084,0.442-0.523,1.199-0.813c0.666-0.204,2.312-0.751,3.212-1.403c0.042-0.023,0.084-0.067,0.118-0.102
		c0.083-0.089,0.21-0.226,0.361-0.366l0.083-0.08l0.085,0.08c0.793,0.747,1.67,1.157,2.47,1.157c0.841,0,1.707-0.363,2.508-1.052
		l0.063-0.055l0.17,0.083c0.151,0.139,0.414,0.33,0.537,0.388l0.156,0.077l-0.016,0.017l0.069,0.042
		c0.148,0.09,0.309,0.176,0.497,0.269c0.191,0.084,0.35,0.146,0.515,0.2c0.139,0.046,0.88,0.295,1.722,0.684l0.161,0.049
		c0.824,0.315,1.19,0.754,1.226,0.799c0.978,1.449,1.353,4.154,1.492,5.661c-2.554,2.074-5.767,3.217-9.052,3.217
		c-3.286,0-6.499-1.143-9.053-3.218C6.085,24.66,6.457,21.964,7.423,20.53z"/>
</g>
</svg>
