<?xml version="1.0" encoding="utf-8"?>
<!-- Generator: Adobe Illustrator 17.0.1, SVG Export Plug-In . SVG Version: 6.00 Build 0)  -->
<!DOCTYPE svg PUBLIC "-//W3C//DTD SVG 1.1//EN" "http://www.w3.org/Graphics/SVG/1.1/DTD/svg11.dtd">
<svg version="1.1" id="Layer_1" xmlns="http://www.w3.org/2000/svg" xmlns:xlink="http://www.w3.org/1999/xlink" x="0px" y="0px"
	 width="25px" height="25px" viewBox="0 0 25 25" enable-background="new 0 0 25 25" xml:space="preserve">
<g>
	<path fill="#FFFFFF" d="M12.526,1.902c0.34-1.046,0.896-1.046,1.236,0l1.866,5.745c0.34,1.046,1.518,1.902,2.618,1.902h6.04
		c1.1,0,1.272,0.529,0.382,1.176l-4.887,3.55c-0.89,0.647-1.34,2.031-1,3.078l1.866,5.745c0.34,1.046-0.11,1.373-1,0.726
		l-4.886-3.55c-0.89-0.647-2.346-0.647-3.236,0l-4.888,3.551c-0.89,0.647-1.34,0.32-1-0.727l1.866-5.745
		c0.34-1.046-0.11-2.431-1-3.078l-4.887-3.55C0.728,10.078,0.9,9.549,2,9.549h6.04c1.1,0,2.278-0.856,2.618-1.902L12.526,1.902z"/>
</g>
</svg>
