<?xml version="1.0" encoding="utf-8"?>
<!-- Generator: Adobe Illustrator 17.0.1, SVG Export Plug-In . SVG Version: 6.00 Build 0)  -->
<!DOCTYPE svg PUBLIC "-//W3C//DTD SVG 1.1//EN" "http://www.w3.org/Graphics/SVG/1.1/DTD/svg11.dtd">
<svg version="1.1" id="Layer_1" xmlns="http://www.w3.org/2000/svg" xmlns:xlink="http://www.w3.org/1999/xlink" x="0px" y="0px"
	 width="30px" height="30px" viewBox="0 0 30 30" enable-background="new 0 0 30 30" xml:space="preserve">
<g>
	<rect fill="#F7931E" width="30" height="30"/>
	<path fill="#FFFFFF" d="M11.639,20.671c-0.205,0.206-0.205,0.541,0,0.747c0.203,0.206,0.535,0.206,0.739,0l5.984-6.043
		c0.205-0.206,0.205-0.542,0-0.749l-5.984-6.042c-0.204-0.206-0.535-0.206-0.739,0c-0.205,0.206-0.205,0.541-0.001,0.747l5.457,5.67
		L11.639,20.671z"/>
	<path fill="none" stroke="#FFFFFF" d="M11.639,20.671c-0.205,0.206-0.205,0.541,0,0.747c0.203,0.206,0.535,0.206,0.739,0
		l5.984-6.043c0.205-0.206,0.205-0.542,0-0.749l-5.984-6.042c-0.204-0.206-0.535-0.206-0.739,0
		c-0.205,0.206-0.205,0.541-0.001,0.747l5.457,5.67L11.639,20.671z"/>
</g>
</svg>
