<?xml version="1.0" encoding="utf-8"?>
<!-- Generator: Adobe Illustrator 17.0.1, SVG Export Plug-In . SVG Version: 6.00 Build 0)  -->
<!DOCTYPE svg PUBLIC "-//W3C//DTD SVG 1.1//EN" "http://www.w3.org/Graphics/SVG/1.1/DTD/svg11.dtd">
<svg version="1.1" id="Layer_1" xmlns="http://www.w3.org/2000/svg" xmlns:xlink="http://www.w3.org/1999/xlink" x="0px" y="0px"
	 width="36px" height="27px" viewBox="0 0 36 27" enable-background="new 0 0 36 27" xml:space="preserve">
<path fill="#5F9531" d="M5.864,17.476c0.825,3.34,1.871,4.795,5.37,6.328C14.73,25.333,16.39,27,17.762,27
	c1.373,0,2.928-1.462,6.424-2.991c3.498-1.529,2.565-1.994,3.387-5.331l-9.812,4.768L5.864,17.476z M34.654,8.769L19.868,0.486
	c-1.157-0.648-3.052-0.648-4.212,0L0.869,8.769c-1.158,0.648-1.158,1.71,0,2.358l14.787,8.282c1.16,0.649,3.055,0.649,4.212,0
	l9.56-5.352l-10.367-2.431c-0.399,0.101-0.839,0.156-1.3,0.156c-1.866,0-3.381-0.899-3.381-2.01c0-1.11,1.514-2.012,3.381-2.012
	c1.452,0,2.684,0.544,3.163,1.306l10.979,3.606l2.751-1.544C35.814,10.478,35.814,9.417,34.654,8.769 M30.136,24.462
	c-0.112,0.682,2.28,1.804,2.509-0.193c1.026-9.007-0.741-11.597-0.741-11.597l-2.476,1.385
	C29.428,14.056,31.528,16.054,30.136,24.462"/>
</svg>
