<?xml version="1.0" encoding="utf-8"?>
<!-- Generator: Adobe Illustrator 17.0.1, SVG Export Plug-In . SVG Version: 6.00 Build 0)  -->
<!DOCTYPE svg PUBLIC "-//W3C//DTD SVG 1.1//EN" "http://www.w3.org/Graphics/SVG/1.1/DTD/svg11.dtd">
<svg version="1.1" id="Layer_1" xmlns="http://www.w3.org/2000/svg" xmlns:xlink="http://www.w3.org/1999/xlink" x="0px" y="0px"
	 width="334px" height="83px" viewBox="0 0 334 83" enable-background="new 0 0 334 83" xml:space="preserve">
<g>
	<polygon fill="#1D1D1B" points="99.403,51.299 99.403,53.25 87.69,53.25 87.69,55.767 85.869,55.767 85.869,48.784 87.69,48.784 
		87.69,51.299 	"/>
	<polygon fill="#1D1D1B" points="99.403,45.518 99.403,47.47 85.869,47.47 85.869,45.518 91.614,45.518 91.614,40.02 85.869,40.02 
		85.869,38.069 99.403,38.069 99.403,40.02 93.536,40.02 93.536,45.518 	"/>
	<polygon fill="#1D1D1B" points="99.403,28.726 99.403,35.72 85.869,35.72 85.869,28.726 87.671,28.726 87.671,33.768 
		91.712,33.768 91.712,28.726 93.479,28.726 93.479,33.768 97.533,33.768 97.533,28.726 	"/>
	<polygon fill="#82B635" points="112.82,54.411 109.076,54.411 109.076,32.15 104.248,32.15 104.248,28.688 117.648,28.688 
		117.648,32.15 112.82,32.15 	"/>
	<polygon fill="#82B635" points="133.586,54.411 120.167,54.411 120.167,28.688 133.586,28.688 133.586,32.114 123.911,32.114 
		123.911,39.796 133.586,39.796 133.586,43.154 123.911,43.154 123.911,50.86 133.586,50.86 	"/>
	<polygon fill="#82B635" points="138.094,54.411 138.094,28.688 150.82,28.688 150.82,32.114 141.801,32.114 141.801,39.796 
		150.82,39.796 150.82,43.154 141.801,43.154 141.801,54.411 	"/>
	<polygon fill="#82B635" points="167.715,54.411 155.501,54.411 155.501,28.688 159.247,28.688 159.247,50.86 167.715,50.86 	"/>
	<path d="M186.024,43.298l-3.641-9.768l-3.708,9.768H186.024z M177.345,46.922l-2.908,7.489h-3.962l10.098-25.722h3.641
		l10.098,25.722h-4.102l-2.835-7.489H177.345z"/>
	<path d="M218.608,47.965c-1.127,2.251-2.678,3.974-4.658,5.167c-1.982,1.195-4.283,1.791-6.894,1.791
		c-1.939,0-3.731-0.372-5.367-1.115c-1.643-0.741-3.109-1.838-4.41-3.302c-1.104-1.212-1.94-2.593-2.501-4.143
		c-0.57-1.543-0.855-3.202-0.855-4.969c0-1.791,0.345-3.491,1.03-5.1c0.684-1.605,1.69-3.069,3.017-4.39
		c1.255-1.224,2.648-2.153,4.18-2.78c1.532-0.633,3.18-0.946,4.942-0.946c2.648,0,4.974,0.62,6.986,1.869
		c2.005,1.248,3.513,3.014,4.531,5.299h-4.404c-0.829-1.139-1.847-2.002-3.053-2.58c-1.206-0.574-2.568-0.862-4.094-0.862
		c-1.218,0-2.381,0.229-3.477,0.687c-1.104,0.458-2.079,1.127-2.927,1.996c-0.891,0.91-1.581,1.966-2.077,3.166
		c-0.497,1.199-0.745,2.424-0.745,3.678c0,1.338,0.224,2.61,0.672,3.803c0.448,1.194,1.097,2.23,1.939,3.099
		c0.885,0.921,1.908,1.634,3.064,2.141c1.163,0.505,2.345,0.759,3.551,0.759c1.478,0,2.81-0.277,3.997-0.839
		c1.195-0.561,2.169-1.369,2.94-2.43L218.608,47.965L218.608,47.965z"/>
	<path d="M234.599,43.298l-3.64-9.768l-3.708,9.768H234.599z M225.921,46.922l-2.91,7.489h-3.96l10.098-25.722h3.639l10.099,25.722
		h-4.101l-2.835-7.489H225.921z"/>
	<path d="M247.769,50.968h4.544c2.878,0,5.149-0.832,6.82-2.501c1.679-1.665,2.515-3.932,2.515-6.79
		c0-2.972-0.885-5.287-2.659-6.963c-1.776-1.671-4.236-2.509-7.367-2.509h-3.852L247.769,50.968L247.769,50.968z M251.391,54.411
		h-7.262V28.688h8.323c3.882,0,7.014,1.195,9.4,3.589c2.381,2.386,3.575,5.51,3.575,9.365c0,2.187-0.448,4.183-1.34,5.985
		c-0.896,1.804-2.18,3.304-3.858,4.504c-1.139,0.813-2.35,1.399-3.641,1.749C255.298,54.236,253.567,54.411,251.391,54.411"/>
	<polygon points="282.286,54.411 268.868,54.411 268.868,28.688 282.286,28.688 282.286,32.114 272.611,32.114 272.611,39.796 
		282.286,39.796 282.286,43.154 272.611,43.154 272.611,50.86 282.286,50.86 	"/>
	<polygon points="290.469,54.411 286.864,54.411 286.864,28.688 292.42,28.688 299.914,48.58 307.401,28.688 312.883,28.688 
		312.883,54.411 309.37,54.411 309.618,32.084 301.221,54.411 298.563,54.411 290.203,32.084 	"/>
	<polygon points="325.997,45.156 325.997,54.411 322.253,54.411 322.253,44.927 314.337,28.688 318.511,28.688 324.186,41.055 
		329.851,28.688 334,28.688 	"/>
	<path fill="#82B635" d="M37.395,7.557c14.15,0,26.467,7.827,32.818,19.367c-0.164,0.499-0.333,0.982-0.504,1.442
		c-1.169,3.134-2.662,6.354-4.456,9.558C64.27,22.092,51.057,9.549,34.904,9.549c-16.793,0-30.411,13.555-30.411,30.27
		c0,16.713,13.619,30.269,30.411,30.269c9.798,0,18.513-4.616,24.075-11.781c2.097-1.416,3.77-2.69,4.706-3.557
		c3.944-3.658,7.733-7.849,11.025-12.39c0.053,0.802,0.082,1.606,0.082,2.42C74.792,65.332,58.045,82,37.395,82S0,65.332,0,44.779
		C0,24.225,16.746,7.557,37.395,7.557"/>
	<path fill="#1D1D1B" d="M34.934,67.03c-15.351,0-27.799-12.39-27.799-27.669c0-15.278,12.448-27.667,27.799-27.667
		c15.35,0,27.797,12.389,27.797,27.667c0,1.013-0.056,2.011-0.162,2.993c-1.116,1.706-2.317,3.393-3.6,5.043
		c0.276-1.407,0.423-2.86,0.423-4.348c0-12.425-10.123-22.501-22.606-22.501s-22.607,10.076-22.607,22.5
		c0,12.426,10.124,22.501,22.607,22.501c0.402,0,0.8-0.011,1.197-0.031c-0.986,0.532-1.99,1.036-3.012,1.512L34.934,67.03
		L34.934,67.03z"/>
	<path fill="#82B635" d="M36.913,22.778c10.855,0,19.658,8.762,19.658,19.566c0,10.806-8.803,19.568-19.658,19.568
		c-10.854,0-19.657-8.762-19.657-19.568c0-5.596,2.362-10.645,6.149-14.212c-2.347,2.468-3.788,5.8-3.788,9.466
		c0,7.605,6.197,13.773,13.837,13.773c7.641,0,13.839-6.169,13.839-13.773c0-7.606-6.198-13.773-13.839-13.773
		c-2.125,0-4.137,0.477-5.936,1.33C30.309,23.639,33.511,22.778,36.913,22.778"/>
	<path fill="#1D1D1B" d="M47.599,6.016c13.254-7.35,25.843-8.252,31.615-1.113c7.934,9.812,0.003,31.088-17.712,47.517
		C53.92,59.449,45.774,64.45,38.311,67.106c5.327-2.803,10.792-6.667,15.991-11.488C71.951,39.252,79.854,18.051,71.95,8.277
		C67.251,2.466,58.021,2,47.599,6.016"/>
</g>
<path fill="#868686" d="M88.937,66.601l2.126-5.688l2.157,5.688H88.937z M88.545,67.62h5.065l1.361,3.555h1.196l-4.402-11.328
	h-1.344l-4.417,11.328h1.181L88.545,67.62z"/>
<polygon fill="#868686" points="110.007,59.848 107.7,69.138 104.871,59.848 103.761,59.848 107.302,71.177 108.233,71.177 
	110.523,61.934 112.805,71.177 113.736,71.177 117.261,59.848 116.166,59.848 113.321,69.138 111.03,59.848 "/>
<path fill="#868686" d="M120.921,69.687c1.111,1.143,2.483,1.716,4.12,1.716c0.854,0,1.647-0.16,2.376-0.482
	c0.729-0.323,1.383-0.799,1.961-1.432c0.5-0.55,0.876-1.16,1.126-1.832c0.25-0.672,0.375-1.409,0.375-2.213
	c0-0.81-0.146-1.565-0.437-2.265c-0.292-0.7-0.727-1.334-1.306-1.898c-0.561-0.55-1.184-0.964-1.864-1.241
	c-0.68-0.277-1.419-0.416-2.216-0.416c-0.781,0-1.507,0.137-2.177,0.412c-0.669,0.275-1.283,0.685-1.84,1.229
	c-0.579,0.566-1.021,1.206-1.326,1.922c-0.304,0.716-0.457,1.468-0.457,2.257C119.256,67.127,119.811,68.542,120.921,69.687z
	 M120.894,63.434c0.31-0.658,0.736-1.217,1.278-1.673c0.412-0.347,0.861-0.61,1.349-0.79c0.487-0.178,0.995-0.269,1.521-0.269
	c1.292,0,2.397,0.466,3.314,1.396c0.918,0.931,1.376,2.04,1.376,3.326c0,1.38-0.445,2.542-1.337,3.486
	c-0.892,0.944-1.983,1.416-3.275,1.416c-1.324,0-2.436-0.467-3.338-1.4c-0.902-0.934-1.353-2.09-1.353-3.471
	C120.429,64.768,120.584,64.093,120.894,63.434z"/>
<path fill="#868686" d="M136.792,60.961c0.807,0,1.369,0.043,1.685,0.128c0.315,0.086,0.584,0.229,0.808,0.431
	c0.27,0.245,0.475,0.53,0.613,0.856c0.138,0.327,0.208,0.689,0.208,1.09c0,0.658-0.226,1.198-0.676,1.618
	c-0.451,0.419-1.036,0.629-1.755,0.629h-1.079l3.377,5.462h1.329l-2.752-4.428c0.786-0.057,1.442-0.401,1.966-1.034
	c0.523-0.632,0.785-1.388,0.785-2.264c0-0.592-0.132-1.151-0.395-1.681c-0.263-0.529-0.621-0.951-1.075-1.268
	c-0.333-0.233-0.705-0.4-1.114-0.502c-0.409-0.101-0.95-0.151-1.622-0.151h-3.057v11.328h1.103V60.961H136.792z"/>
<polygon fill="#868686" points="149.989,70.079 145.987,70.079 145.987,59.848 144.861,59.848 144.861,71.177 149.989,71.177 "/>
<path fill="#868686" d="M153.22,71.177h2.736c1.163,0,2.022-0.073,2.579-0.218c0.557-0.145,1.077-0.385,1.556-0.723
	c0.724-0.519,1.285-1.19,1.681-2.012c0.396-0.822,0.593-1.734,0.593-2.735c0-0.897-0.179-1.74-0.539-2.529
	c-0.359-0.789-0.864-1.455-1.516-2c-0.464-0.388-1-0.672-1.607-0.848c-0.607-0.176-1.355-0.265-2.247-0.265h-3.236L153.22,71.177
	L153.22,71.177z M156.378,60.93c0.876,0,1.543,0.069,2.001,0.206s0.873,0.366,1.243,0.688c0.495,0.425,0.876,0.952,1.142,1.58
	c0.265,0.627,0.398,1.312,0.398,2.055c0,1.483-0.39,2.629-1.173,3.439c-0.781,0.81-1.897,1.214-3.345,1.214h-2.322V60.93H156.378z"
	/>
<path fill="#868686" d="M173.024,69.687c1.111,1.143,2.483,1.716,4.12,1.716c0.854,0,1.646-0.16,2.376-0.482
	c0.729-0.323,1.383-0.799,1.961-1.432c0.5-0.55,0.876-1.16,1.126-1.832c0.25-0.672,0.375-1.409,0.375-2.213
	c0-0.81-0.145-1.565-0.437-2.265c-0.292-0.7-0.727-1.334-1.306-1.898c-0.562-0.55-1.184-0.964-1.864-1.241
	c-0.68-0.277-1.419-0.416-2.216-0.416c-0.781,0-1.508,0.137-2.177,0.412c-0.669,0.275-1.283,0.685-1.84,1.229
	c-0.579,0.566-1.021,1.206-1.326,1.922c-0.304,0.716-0.457,1.468-0.457,2.257C171.359,67.127,171.915,68.542,173.024,69.687z
	 M172.997,63.434c0.31-0.658,0.735-1.217,1.278-1.673c0.411-0.347,0.861-0.61,1.349-0.79c0.487-0.178,0.994-0.269,1.521-0.269
	c1.293,0,2.396,0.466,3.314,1.396c0.918,0.931,1.376,2.04,1.376,3.326c0,1.38-0.445,2.542-1.337,3.486
	c-0.892,0.944-1.982,1.416-3.275,1.416c-1.325,0-2.436-0.467-3.338-1.4c-0.903-0.934-1.353-2.09-1.353-3.471
	C172.532,64.768,172.687,64.093,172.997,63.434z"/>
<polygon fill="#868686" points="187.402,71.177 187.402,66.05 191.92,66.05 191.92,64.929 187.402,64.929 187.402,60.961 
	191.92,60.961 191.92,59.848 186.299,59.848 186.299,71.177 "/>
<path fill="#868686" d="M203.174,69.687c1.111,1.143,2.483,1.716,4.12,1.716c0.854,0,1.646-0.16,2.376-0.482
	c0.729-0.323,1.383-0.799,1.961-1.432c0.5-0.55,0.876-1.16,1.126-1.832c0.25-0.672,0.375-1.409,0.375-2.213
	c0-0.81-0.145-1.565-0.437-2.265c-0.292-0.7-0.727-1.334-1.306-1.898c-0.562-0.55-1.184-0.964-1.864-1.241
	c-0.68-0.277-1.419-0.416-2.216-0.416c-0.781,0-1.508,0.137-2.177,0.412c-0.669,0.275-1.283,0.685-1.84,1.229
	c-0.579,0.566-1.021,1.206-1.326,1.922c-0.304,0.716-0.457,1.468-0.457,2.257C201.508,67.127,202.064,68.542,203.174,69.687z
	 M203.147,63.434c0.31-0.658,0.735-1.217,1.278-1.673c0.411-0.347,0.861-0.61,1.349-0.79c0.487-0.178,0.994-0.269,1.521-0.269
	c1.293,0,2.396,0.466,3.314,1.396c0.918,0.931,1.376,2.04,1.376,3.326c0,1.38-0.445,2.542-1.337,3.486
	c-0.892,0.944-1.982,1.416-3.275,1.416c-1.325,0-2.436-0.467-3.338-1.4c-0.903-0.934-1.353-2.09-1.353-3.471
	C202.681,64.768,202.836,64.093,203.147,63.434z"/>
<path fill="#868686" d="M216.324,71.177h1.118v-4.761h1.494c0.651,0,1.187-0.046,1.606-0.136c0.419-0.091,0.78-0.237,1.083-0.439
	c0.433-0.285,0.77-0.669,1.013-1.155c0.242-0.485,0.363-1.012,0.363-1.583c0-0.602-0.134-1.142-0.402-1.621
	c-0.269-0.48-0.653-0.87-1.154-1.171c-0.276-0.16-0.621-0.278-1.04-0.351c-0.417-0.073-0.972-0.109-1.665-0.109h-2.415V71.177z
	 M218.997,60.961c0.975,0,1.682,0.175,2.122,0.525c0.441,0.351,0.66,0.904,0.66,1.661c0,0.726-0.218,1.264-0.656,1.611
	c-0.438,0.347-1.115,0.52-2.032,0.52h-1.65V60.96L218.997,60.961L218.997,60.961z"/>
<path fill="#868686" d="M226.167,71.177h1.118v-4.761h1.494c0.651,0,1.187-0.046,1.606-0.136c0.419-0.091,0.78-0.237,1.083-0.439
	c0.433-0.285,0.77-0.669,1.013-1.155c0.242-0.485,0.363-1.012,0.363-1.583c0-0.602-0.134-1.142-0.402-1.621
	c-0.269-0.48-0.653-0.87-1.154-1.171c-0.276-0.16-0.622-0.278-1.04-0.351c-0.417-0.073-0.972-0.109-1.665-0.109h-2.415V71.177z
	 M228.84,60.961c0.975,0,1.682,0.175,2.122,0.525c0.441,0.351,0.66,0.904,0.66,1.661c0,0.726-0.218,1.264-0.656,1.611
	c-0.438,0.347-1.115,0.52-2.032,0.52h-1.65V60.96L228.84,60.961L228.84,60.961z"/>
<path fill="#868686" d="M237.222,69.687c1.111,1.143,2.483,1.716,4.12,1.716c0.854,0,1.646-0.16,2.376-0.482
	c0.729-0.323,1.383-0.799,1.961-1.432c0.5-0.55,0.876-1.16,1.126-1.832c0.25-0.672,0.375-1.409,0.375-2.213
	c0-0.81-0.145-1.565-0.437-2.265c-0.292-0.7-0.727-1.334-1.306-1.898c-0.562-0.55-1.184-0.964-1.864-1.241
	c-0.68-0.277-1.419-0.416-2.216-0.416c-0.781,0-1.508,0.137-2.177,0.412c-0.669,0.275-1.283,0.685-1.84,1.229
	c-0.579,0.566-1.021,1.206-1.326,1.922c-0.304,0.716-0.457,1.468-0.457,2.257C235.557,67.127,236.112,68.542,237.222,69.687z
	 M237.195,63.434c0.31-0.658,0.735-1.217,1.278-1.673c0.411-0.347,0.861-0.61,1.349-0.79c0.487-0.178,0.994-0.269,1.521-0.269
	c1.293,0,2.396,0.466,3.314,1.396c0.918,0.931,1.376,2.04,1.376,3.326c0,1.38-0.445,2.542-1.337,3.486
	c-0.892,0.944-1.982,1.416-3.275,1.416c-1.325,0-2.436-0.467-3.338-1.4c-0.903-0.934-1.353-2.09-1.353-3.471
	C236.73,64.768,236.885,64.093,237.195,63.434z"/>
<path fill="#868686" d="M253.094,60.961c0.808,0,1.369,0.043,1.685,0.128c0.315,0.086,0.585,0.229,0.808,0.431
	c0.271,0.245,0.476,0.53,0.613,0.856c0.138,0.327,0.208,0.689,0.208,1.09c0,0.658-0.226,1.198-0.676,1.618
	c-0.45,0.419-1.036,0.629-1.755,0.629h-1.079l3.377,5.462h1.329l-2.752-4.428c0.786-0.057,1.442-0.401,1.966-1.034
	c0.523-0.632,0.785-1.388,0.785-2.264c0-0.592-0.132-1.151-0.395-1.681c-0.262-0.529-0.621-0.951-1.075-1.268
	c-0.333-0.233-0.704-0.4-1.114-0.502c-0.409-0.101-0.95-0.151-1.622-0.151h-3.057v11.328h1.103V60.961H253.094z"/>
<polygon fill="#868686" points="263.594,60.961 265.868,60.961 265.868,59.848 260.201,59.848 260.201,60.961 262.476,60.961 
	262.476,71.177 263.594,71.177 "/>
<path fill="#868686" d="M268.614,67.053c0,1.499,0.3,2.601,0.899,3.306c0.599,0.705,1.538,1.059,2.815,1.059
	c1.193,0,2.083-0.36,2.67-1.082c0.586-0.721,0.88-1.816,0.88-3.284v-7.204h-1.103v6.933c0,1.224-0.206,2.127-0.617,2.711
	c-0.411,0.584-1.048,0.875-1.907,0.875c-0.495,0-0.94-0.121-1.333-0.365c-0.394-0.244-0.692-0.581-0.896-1.012
	c-0.104-0.213-0.178-0.456-0.222-0.731c-0.044-0.275-0.067-0.689-0.067-1.245v-7.166h-1.118L268.614,67.053L268.614,67.053z"/>
<polygon fill="#868686" points="280.905,59.848 279.559,59.848 279.559,71.177 280.662,71.177 280.537,61.187 286.783,71.177 
	288.127,71.177 288.127,59.848 287.016,59.848 287.15,69.823 "/>
<rect x="292.016" y="59.848" fill="#868686" width="1.118" height="11.328"/>
<polygon fill="#868686" points="299.443,60.961 301.718,60.961 301.718,59.848 296.05,59.848 296.05,60.961 298.326,60.961 
	298.326,71.177 299.443,71.177 "/>
<rect x="304.62" y="59.848" fill="#868686" width="1.118" height="11.328"/>
<polygon fill="#868686" points="310.743,60.961 315.526,60.961 315.526,59.848 309.617,59.848 309.617,71.177 315.526,71.177 
	315.526,70.079 310.743,70.079 310.743,66.049 315.526,66.049 315.526,64.928 310.743,64.928 "/>
<path fill="#868686" d="M319.696,70.449c0.578,0.635,1.332,0.953,2.259,0.953c0.996,0,1.794-0.336,2.395-1.008
	c0.602-0.671,0.904-1.558,0.904-2.657c0-0.72-0.163-1.303-0.489-1.747c-0.325-0.443-0.858-0.809-1.598-1.094
	c-0.203-0.078-0.5-0.179-0.892-0.304c-0.677-0.218-1.137-0.415-1.376-0.592c-0.234-0.175-0.405-0.372-0.512-0.587
	c-0.106-0.215-0.16-0.472-0.16-0.768c0-0.565,0.179-1.031,0.535-1.396c0.357-0.366,0.817-0.549,1.38-0.549
	c0.527,0,0.947,0.167,1.259,0.502c0.313,0.335,0.497,0.81,0.555,1.427h1.055c-0.057-0.949-0.335-1.685-0.835-2.209
	c-0.5-0.525-1.178-0.786-2.033-0.786c-0.896,0-1.627,0.288-2.192,0.863c-0.566,0.576-0.848,1.315-0.848,2.217
	c0,0.705,0.184,1.278,0.551,1.716c0.367,0.438,0.969,0.801,1.802,1.086c0.062,0.021,0.156,0.052,0.281,0.094
	c1.595,0.524,2.392,1.299,2.392,2.325c0,0.705-0.195,1.265-0.582,1.677c-0.388,0.412-0.914,0.618-1.576,0.618
	c-0.614,0-1.111-0.207-1.489-0.622c-0.378-0.415-0.577-0.972-0.598-1.673h-1.079C318.82,68.978,319.118,69.813,319.696,70.449z"/>
</svg>
