<?xml version="1.0" encoding="utf-8"?>
<!-- Generator: Adobe Illustrator 17.0.1, SVG Export Plug-In . SVG Version: 6.00 Build 0)  -->
<!DOCTYPE svg PUBLIC "-//W3C//DTD SVG 1.1//EN" "http://www.w3.org/Graphics/SVG/1.1/DTD/svg11.dtd">
<svg version="1.1" id="Layer_1" xmlns="http://www.w3.org/2000/svg" xmlns:xlink="http://www.w3.org/1999/xlink" x="0px" y="0px"
	 width="334px" height="83px" viewBox="0 0 334 83" enable-background="new 0 0 334 83" xml:space="preserve">
<polygon fill="#1D1D1B" points="99.343,51.51 99.343,53.469 87.637,53.469 87.637,55.996 85.817,55.996 85.817,48.984 
	87.637,48.984 87.637,51.51 "/>
<polygon fill="#1D1D1B" points="99.343,45.705 99.343,47.665 85.817,47.665 85.817,45.705 91.559,45.705 91.559,40.184 
	85.817,40.184 85.817,38.225 99.343,38.225 99.343,40.184 93.48,40.184 93.48,45.705 "/>
<polygon fill="#1D1D1B" points="99.343,28.844 99.343,35.867 85.817,35.867 85.817,28.844 87.618,28.844 87.618,33.907 
	91.657,33.907 91.657,28.844 93.423,28.844 93.423,33.907 97.475,33.907 97.475,28.844 "/>
<polygon fill="#82B635" points="112.754,54.635 109.012,54.635 109.012,32.282 104.187,32.282 104.187,28.806 117.579,28.806 
	117.579,32.282 112.754,32.282 "/>
<polygon fill="#82B635" points="133.508,54.635 120.097,54.635 120.097,28.806 133.508,28.806 133.508,32.246 123.839,32.246 
	123.839,39.959 133.508,39.959 133.508,43.331 123.839,43.331 123.839,51.069 133.508,51.069 "/>
<polygon fill="#82B635" points="138.012,54.635 138.012,28.806 150.731,28.806 150.731,32.246 141.717,32.246 141.717,39.959 
	150.731,39.959 150.731,43.331 141.717,43.331 141.717,54.635 "/>
<polygon fill="#82B635" points="167.617,54.635 155.41,54.635 155.41,28.806 159.153,28.806 159.153,51.069 167.617,51.069 "/>
<path d="M185.916,43.476l-3.639-9.808l-3.706,9.808H185.916z M177.241,47.115l-2.906,7.52h-3.96l10.092-25.828h3.639l10.092,25.828
	h-4.1l-2.833-7.52H177.241z"/>
<path d="M218.481,48.162c-1.126,2.26-2.676,3.99-4.655,5.188c-1.981,1.2-4.281,1.798-6.89,1.798c-1.938,0-3.729-0.374-5.364-1.12
	c-1.642-0.744-3.107-1.846-4.407-3.316c-1.103-1.217-1.939-2.604-2.5-4.16c-0.57-1.549-0.855-3.215-0.855-4.989
	c0-1.798,0.345-3.505,1.029-5.121c0.684-1.612,1.689-3.082,3.015-4.408c1.254-1.229,2.647-2.162,4.178-2.791
	c1.531-0.636,3.178-0.95,4.939-0.95c2.647,0,4.971,0.623,6.982,1.877c2.004,1.253,3.511,3.026,4.528,5.321h-4.402
	c-0.829-1.144-1.846-2.01-3.051-2.591c-1.205-0.576-2.567-0.866-4.092-0.866c-1.217,0-2.38,0.23-3.475,0.69
	c-1.103,0.46-2.078,1.132-2.925,2.004c-0.89,0.914-1.58,1.974-2.076,3.179c-0.497,1.204-0.745,2.434-0.745,3.693
	c0,1.343,0.224,2.621,0.672,3.819c0.448,1.199,1.096,2.239,1.938,3.112c0.884,0.925,1.907,1.641,3.062,2.15
	c1.162,0.507,2.344,0.762,3.549,0.762c1.477,0,2.808-0.278,3.995-0.842c1.194-0.563,2.168-1.375,2.938-2.44H218.481z"/>
<path d="M234.464,43.476l-3.638-9.808l-3.706,9.808H234.464z M225.79,47.115l-2.908,7.52h-3.958l10.092-25.828h3.637l10.093,25.828
	h-4.099l-2.833-7.52H225.79z"/>
<path d="M247.626,51.177h4.541c2.876,0,5.146-0.835,6.816-2.511c1.678-1.672,2.514-3.948,2.514-6.818
	c0-2.984-0.885-5.309-2.658-6.992c-1.775-1.678-4.234-2.519-7.363-2.519h-3.85V51.177z M251.246,54.635h-7.258V28.806h8.318
	c3.88,0,7.01,1.2,9.395,3.604c2.38,2.396,3.573,5.533,3.573,9.403c0,2.196-0.448,4.2-1.339,6.01
	c-0.895,1.811-2.179,3.318-3.856,4.523c-1.138,0.816-2.349,1.405-3.639,1.756C255.151,54.459,253.421,54.635,251.246,54.635"/>
<polygon points="282.123,54.635 268.713,54.635 268.713,28.806 282.123,28.806 282.123,32.246 272.454,32.246 272.454,39.959 
	282.123,39.959 282.123,43.331 272.454,43.331 272.454,51.069 282.123,51.069 "/>
<polygon points="290.302,54.635 286.699,54.635 286.699,28.806 292.252,28.806 299.741,48.78 307.224,28.806 312.703,28.806 
	312.703,54.635 309.192,54.635 309.44,32.216 301.048,54.635 298.391,54.635 290.036,32.216 "/>
<polygon points="325.81,45.341 325.81,54.635 322.067,54.635 322.067,45.112 314.155,28.806 318.328,28.806 323.999,41.224 
	329.661,28.806 333.808,28.806 "/>
<path fill-rule="evenodd" clip-rule="evenodd" fill="#82B635" d="M37.372,7.588c14.142,0,26.452,7.859,32.799,19.447
	c-0.164,0.501-0.333,0.986-0.504,1.448c-1.168,3.147-2.66,6.38-4.453,9.597C64.23,22.183,51.025,9.588,34.882,9.588
	c-16.783,0-30.394,13.611-30.394,30.394c0,16.782,13.611,30.393,30.394,30.393c9.792,0,18.502-4.635,24.061-11.829
	c2.096-1.422,3.768-2.701,4.703-3.572c3.942-3.673,7.729-7.881,11.019-12.441c0.053,0.805,0.082,1.613,0.082,2.43
	c0,20.637-16.737,37.374-37.375,37.374S-0.002,65.6-0.002,44.963C-0.002,24.325,16.733,7.588,37.372,7.588"/>
<path fill-rule="evenodd" clip-rule="evenodd" fill="#1D1D1B" d="M34.912,67.305c-15.342,0-27.783-12.441-27.783-27.783
	c0-15.341,12.441-27.781,27.783-27.781c15.341,0,27.781,12.44,27.781,27.781c0,1.017-0.056,2.019-0.162,3.005
	c-1.115,1.713-2.316,3.407-3.598,5.064c0.276-1.413,0.423-2.872,0.423-4.366c0-12.476-10.117-22.593-22.593-22.593
	S14.168,30.749,14.168,43.224c0,12.477,10.118,22.593,22.594,22.593c0.402,0,0.8-0.011,1.196-0.031
	c-0.985,0.534-1.989,1.04-3.01,1.518H34.912z"/>
<path fill-rule="evenodd" clip-rule="evenodd" fill="#82B635" d="M36.89,22.872c10.849,0,19.647,8.798,19.647,19.646
	c0,10.85-8.798,19.648-19.647,19.648c-10.848,0-19.646-8.798-19.646-19.648c0-5.619,2.361-10.689,6.146-14.27
	c-2.346,2.478-3.786,5.824-3.786,9.505c0,7.636,6.193,13.83,13.829,13.83c7.637,0,13.831-6.194,13.831-13.83
	c0-7.637-6.194-13.83-13.831-13.83c-2.124,0-4.135,0.479-5.933,1.335C30.29,23.736,33.489,22.872,36.89,22.872"/>
<path fill-rule="evenodd" clip-rule="evenodd" fill="#1D1D1B" d="M47.57,6.041c13.246-7.38,25.828-8.286,31.597-1.118
	c7.929,9.852,0.003,31.216-17.702,47.712c-7.578,7.058-15.719,12.08-23.178,14.747c5.324-2.815,10.786-6.694,15.982-11.535
	C71.908,39.413,79.807,18.125,71.907,8.311C67.211,2.476,57.986,2.008,47.57,6.041"/>
<path fill="#868686" d="M88.883,66.875l2.125-5.711l2.156,5.711H88.883z M88.492,67.898h5.062l1.36,3.57h1.195l-4.399-11.375h-1.344
	l-4.414,11.375h1.18L88.492,67.898z"/>
<polygon fill="#868686" points="109.942,60.094 107.637,69.422 104.809,60.094 103.7,60.094 107.239,71.469 108.169,71.469 
	110.458,62.188 112.739,71.469 113.669,71.469 117.192,60.094 116.098,60.094 113.255,69.422 110.965,60.094 "/>
<path fill="#868686" d="M120.85,69.973c1.11,1.148,2.482,1.723,4.118,1.723c0.854,0,1.646-0.161,2.375-0.484
	c0.729-0.324,1.382-0.802,1.96-1.438c0.5-0.552,0.875-1.165,1.125-1.84c0.25-0.675,0.375-1.415,0.375-2.222
	c0-0.813-0.146-1.571-0.437-2.274c-0.292-0.703-0.727-1.339-1.305-1.906c-0.561-0.552-1.183-0.968-1.863-1.246
	c-0.68-0.278-1.418-0.418-2.215-0.418c-0.781,0-1.506,0.138-2.176,0.414c-0.669,0.276-1.282,0.688-1.839,1.234
	c-0.579,0.568-1.02,1.211-1.325,1.93c-0.304,0.719-0.457,1.474-0.457,2.266C119.185,67.403,119.741,68.824,120.85,69.973z
	 M120.823,63.695c0.31-0.661,0.736-1.222,1.277-1.68c0.412-0.348,0.861-0.613,1.348-0.793c0.487-0.179,0.994-0.27,1.52-0.27
	c1.291,0,2.396,0.468,3.312,1.402c0.917,0.935,1.375,2.048,1.375,3.34c0,1.386-0.445,2.552-1.336,3.5
	c-0.891,0.948-1.982,1.422-3.273,1.422c-1.323,0-2.435-0.469-3.336-1.406c-0.901-0.938-1.352-2.099-1.352-3.485
	C120.358,65.034,120.513,64.356,120.823,63.695z"/>
<path fill="#868686" d="M136.712,61.211c0.807,0,1.368,0.043,1.684,0.129c0.315,0.086,0.584,0.23,0.808,0.433
	c0.27,0.246,0.475,0.532,0.613,0.86c0.138,0.328,0.208,0.692,0.208,1.094c0,0.661-0.226,1.203-0.676,1.625
	c-0.451,0.421-1.035,0.632-1.754,0.632h-1.078l3.375,5.484h1.328l-2.75-4.446c0.786-0.057,1.441-0.403,1.965-1.038
	c0.523-0.635,0.785-1.394,0.785-2.273c0-0.594-0.132-1.156-0.395-1.688c-0.263-0.531-0.621-0.955-1.074-1.273
	c-0.333-0.234-0.705-0.402-1.113-0.504c-0.409-0.101-0.949-0.152-1.621-0.152h-3.055v11.375h1.102V61.211H136.712z"/>
<polygon fill="#868686" points="149.901,70.367 145.901,70.367 145.901,60.094 144.776,60.094 144.776,71.469 149.901,71.469 "/>
<path fill="#868686" d="M153.131,71.469h2.734c1.162,0,2.021-0.073,2.578-0.219c0.557-0.146,1.076-0.387,1.555-0.726
	c0.724-0.521,1.284-1.195,1.68-2.02c0.396-0.825,0.593-1.741,0.593-2.746c0-0.901-0.179-1.747-0.539-2.539
	c-0.359-0.792-0.864-1.461-1.515-2.008c-0.464-0.39-0.999-0.675-1.606-0.851c-0.607-0.177-1.354-0.266-2.246-0.266h-3.234V71.469z
	 M156.287,61.18c0.875,0,1.542,0.069,2,0.207c0.458,0.138,0.873,0.368,1.242,0.691c0.495,0.427,0.875,0.956,1.141,1.586
	c0.265,0.63,0.398,1.317,0.398,2.063c0,1.489-0.39,2.64-1.172,3.453c-0.781,0.813-1.896,1.219-3.343,1.219h-2.321V61.18H156.287z"/>
<path fill="#868686" d="M172.923,69.973c1.11,1.148,2.482,1.723,4.118,1.723c0.854,0,1.645-0.161,2.375-0.484
	c0.729-0.324,1.382-0.802,1.96-1.438c0.5-0.552,0.875-1.165,1.125-1.84c0.25-0.675,0.375-1.415,0.375-2.222
	c0-0.813-0.145-1.571-0.437-2.274c-0.292-0.703-0.727-1.339-1.305-1.906c-0.562-0.552-1.183-0.968-1.863-1.246
	c-0.68-0.278-1.418-0.418-2.215-0.418c-0.781,0-1.507,0.138-2.176,0.414c-0.669,0.276-1.282,0.688-1.839,1.234
	c-0.579,0.568-1.02,1.211-1.325,1.93c-0.304,0.719-0.457,1.474-0.457,2.266C171.259,67.403,171.814,68.824,172.923,69.973z
	 M172.896,63.695c0.31-0.661,0.735-1.222,1.277-1.68c0.411-0.348,0.861-0.613,1.348-0.793c0.487-0.179,0.993-0.27,1.52-0.27
	c1.292,0,2.395,0.468,3.312,1.402c0.917,0.935,1.375,2.048,1.375,3.34c0,1.386-0.445,2.552-1.336,3.5
	c-0.891,0.948-1.981,1.422-3.273,1.422c-1.324,0-2.435-0.469-3.336-1.406c-0.902-0.938-1.352-2.099-1.352-3.485
	C172.432,65.034,172.586,64.356,172.896,63.695z"/>
<polygon fill="#868686" points="187.293,71.469 187.293,66.321 191.809,66.321 191.809,65.196 187.293,65.196 187.293,61.211 
	191.809,61.211 191.809,60.094 186.191,60.094 186.191,71.469 "/>
<path fill="#868686" d="M203.055,69.973c1.11,1.148,2.482,1.723,4.118,1.723c0.854,0,1.645-0.161,2.375-0.484
	c0.729-0.324,1.382-0.802,1.96-1.438c0.5-0.552,0.875-1.165,1.125-1.84c0.25-0.675,0.375-1.415,0.375-2.222
	c0-0.813-0.145-1.571-0.437-2.274c-0.292-0.703-0.727-1.339-1.305-1.906c-0.562-0.552-1.183-0.968-1.863-1.246
	c-0.68-0.278-1.418-0.418-2.215-0.418c-0.781,0-1.507,0.138-2.176,0.414c-0.669,0.276-1.282,0.688-1.839,1.234
	c-0.579,0.568-1.02,1.211-1.325,1.93c-0.304,0.719-0.457,1.474-0.457,2.266C201.391,67.403,201.946,68.824,203.055,69.973z
	 M203.028,63.695c0.31-0.661,0.735-1.222,1.277-1.68c0.411-0.348,0.861-0.613,1.348-0.793c0.487-0.179,0.993-0.27,1.52-0.27
	c1.292,0,2.395,0.468,3.312,1.402c0.917,0.935,1.375,2.048,1.375,3.34c0,1.386-0.445,2.552-1.336,3.5
	c-0.891,0.948-1.981,1.422-3.273,1.422c-1.324,0-2.435-0.469-3.336-1.406c-0.902-0.938-1.352-2.099-1.352-3.485
	C202.563,65.034,202.718,64.356,203.028,63.695z"/>
<path fill="#868686" d="M216.198,71.469h1.117v-4.781h1.493c0.651,0,1.186-0.046,1.605-0.137c0.419-0.091,0.78-0.238,1.082-0.441
	c0.433-0.286,0.77-0.672,1.012-1.16c0.242-0.487,0.363-1.016,0.363-1.59c0-0.604-0.134-1.147-0.402-1.628
	c-0.269-0.482-0.653-0.874-1.153-1.176c-0.276-0.161-0.621-0.279-1.039-0.352c-0.417-0.073-0.971-0.109-1.664-0.109h-2.414V71.469z
	 M218.87,61.211c0.974,0,1.681,0.176,2.121,0.527c0.441,0.352,0.66,0.908,0.66,1.668c0,0.729-0.218,1.269-0.656,1.618
	c-0.438,0.348-1.114,0.522-2.031,0.522h-1.649v-4.336H218.87z"/>
<path fill="#868686" d="M226.036,71.469h1.117v-4.781h1.493c0.651,0,1.186-0.046,1.605-0.137c0.419-0.091,0.78-0.238,1.082-0.441
	c0.433-0.286,0.77-0.672,1.012-1.16c0.242-0.487,0.363-1.016,0.363-1.59c0-0.604-0.134-1.147-0.402-1.628
	c-0.269-0.482-0.653-0.874-1.153-1.176c-0.276-0.161-0.622-0.279-1.039-0.352c-0.417-0.073-0.971-0.109-1.664-0.109h-2.414V71.469z
	 M228.708,61.211c0.974,0,1.681,0.176,2.121,0.527c0.441,0.352,0.66,0.908,0.66,1.668c0,0.729-0.218,1.269-0.656,1.618
	c-0.438,0.348-1.114,0.522-2.031,0.522h-1.649v-4.336H228.708z"/>
<path fill="#868686" d="M237.084,69.973c1.11,1.148,2.482,1.723,4.118,1.723c0.854,0,1.645-0.161,2.375-0.484
	c0.729-0.324,1.382-0.802,1.96-1.438c0.5-0.552,0.875-1.165,1.125-1.84c0.25-0.675,0.375-1.415,0.375-2.222
	c0-0.813-0.145-1.571-0.437-2.274c-0.292-0.703-0.727-1.339-1.305-1.906c-0.562-0.552-1.183-0.968-1.863-1.246
	c-0.68-0.278-1.418-0.418-2.215-0.418c-0.781,0-1.507,0.138-2.176,0.414c-0.669,0.276-1.282,0.688-1.839,1.234
	c-0.579,0.568-1.02,1.211-1.325,1.93c-0.304,0.719-0.457,1.474-0.457,2.266C235.42,67.403,235.976,68.824,237.084,69.973z
	 M237.058,63.695c0.31-0.661,0.735-1.222,1.277-1.68c0.411-0.348,0.861-0.613,1.348-0.793c0.487-0.179,0.993-0.27,1.52-0.27
	c1.292,0,2.395,0.468,3.312,1.402c0.917,0.935,1.375,2.048,1.375,3.34c0,1.386-0.445,2.552-1.336,3.5
	c-0.891,0.948-1.981,1.422-3.273,1.422c-1.324,0-2.435-0.469-3.336-1.406c-0.902-0.938-1.352-2.099-1.352-3.485
	C236.593,65.034,236.748,64.356,237.058,63.695z"/>
<path fill="#868686" d="M252.947,61.211c0.808,0,1.368,0.043,1.684,0.129c0.315,0.086,0.585,0.23,0.808,0.433
	c0.271,0.246,0.476,0.532,0.613,0.86c0.138,0.328,0.208,0.692,0.208,1.094c0,0.661-0.226,1.203-0.676,1.625
	c-0.45,0.421-1.035,0.632-1.754,0.632h-1.078l3.375,5.484h1.328l-2.75-4.446c0.786-0.057,1.441-0.403,1.965-1.038
	c0.523-0.635,0.785-1.394,0.785-2.273c0-0.594-0.132-1.156-0.395-1.688c-0.262-0.531-0.621-0.955-1.074-1.273
	c-0.333-0.234-0.704-0.402-1.113-0.504c-0.409-0.101-0.949-0.152-1.621-0.152h-3.055v11.375h1.102V61.211H252.947z"/>
<polygon fill="#868686" points="263.441,61.211 265.714,61.211 265.714,60.094 260.05,60.094 260.05,61.211 262.324,61.211 
	262.324,71.469 263.441,71.469 "/>
<path fill="#868686" d="M268.459,67.328c0,1.505,0.3,2.612,0.898,3.32c0.599,0.708,1.537,1.063,2.813,1.063
	c1.192,0,2.082-0.361,2.668-1.086c0.586-0.724,0.879-1.823,0.879-3.297v-7.234h-1.102v6.961c0,1.229-0.206,2.136-0.617,2.722
	c-0.411,0.586-1.047,0.879-1.906,0.879c-0.495,0-0.939-0.122-1.332-0.367c-0.394-0.245-0.692-0.583-0.895-1.016
	c-0.104-0.214-0.178-0.458-0.222-0.734c-0.044-0.276-0.067-0.692-0.067-1.25v-7.195h-1.117V67.328z"/>
<polygon fill="#868686" points="280.742,60.094 279.398,60.094 279.398,71.469 280.5,71.469 280.375,61.438 286.617,71.469 
	287.961,71.469 287.961,60.094 286.851,60.094 286.984,70.11 "/>
<rect x="291.847" y="60.094" fill="#868686" width="1.117" height="11.375"/>
<polygon fill="#868686" points="299.27,61.211 301.543,61.211 301.543,60.094 295.879,60.094 295.879,61.211 298.153,61.211 
	298.153,71.469 299.27,71.469 "/>
<rect x="304.445" y="60.094" fill="#868686" width="1.117" height="11.375"/>
<polygon fill="#868686" points="310.563,61.211 315.344,61.211 315.344,60.094 309.438,60.094 309.438,71.469 315.344,71.469 
	315.344,70.367 310.563,70.367 310.563,66.32 315.344,66.32 315.344,65.195 310.563,65.195 "/>
<path fill="#868686" d="M319.512,70.738c0.578,0.638,1.331,0.957,2.258,0.957c0.995,0,1.793-0.337,2.394-1.012
	c0.602-0.674,0.903-1.564,0.903-2.668c0-0.723-0.163-1.308-0.489-1.754c-0.325-0.445-0.858-0.812-1.597-1.098
	c-0.203-0.078-0.5-0.18-0.891-0.305c-0.677-0.219-1.136-0.417-1.375-0.594c-0.234-0.176-0.405-0.374-0.512-0.589
	c-0.106-0.216-0.16-0.474-0.16-0.771c0-0.567,0.179-1.035,0.535-1.402c0.357-0.368,0.817-0.551,1.379-0.551
	c0.527,0,0.946,0.168,1.258,0.504c0.313,0.336,0.497,0.813,0.555,1.433h1.054c-0.057-0.953-0.335-1.692-0.835-2.218
	c-0.5-0.527-1.177-0.789-2.032-0.789c-0.895,0-1.626,0.289-2.191,0.867c-0.566,0.578-0.848,1.32-0.848,2.226
	c0,0.708,0.184,1.283,0.551,1.723c0.367,0.44,0.968,0.804,1.801,1.09c0.062,0.021,0.156,0.052,0.281,0.094
	c1.594,0.526,2.391,1.304,2.391,2.335c0,0.708-0.195,1.27-0.582,1.684c-0.388,0.414-0.913,0.621-1.575,0.621
	c-0.614,0-1.11-0.208-1.488-0.625c-0.378-0.417-0.577-0.976-0.598-1.68h-1.078C318.637,69.261,318.934,70.1,319.512,70.738z"/>
</svg>
