<?xml version="1.0" encoding="utf-8"?>
<!-- Generator: Adobe Illustrator 17.0.1, SVG Export Plug-In . SVG Version: 6.00 Build 0)  -->
<!DOCTYPE svg PUBLIC "-//W3C//DTD SVG 1.1//EN" "http://www.w3.org/Graphics/SVG/1.1/DTD/svg11.dtd">
<svg version="1.1" id="Layer_1" xmlns="http://www.w3.org/2000/svg" xmlns:xlink="http://www.w3.org/1999/xlink" x="0px" y="0px"
	 width="50px" height="50px" viewBox="0 0 50 50" enable-background="new 0 0 50 50" xml:space="preserve">
<g>
	<rect fill="#1D1D1B" width="50" height="50"/>
	<g>
		<path fill="#FFFFFF" d="M36.223,23.129H13.776c-1.033,0-1.87,0.838-1.87,1.871c0,1.033,0.837,1.871,1.87,1.871h22.446
			c1.033,0,1.871-0.838,1.871-1.871C38.094,23.967,37.256,23.129,36.223,23.129z M13.776,19.389h22.446
			c1.033,0,1.871-0.838,1.871-1.87c0-1.034-0.838-1.871-1.871-1.871H13.776c-1.033,0-1.87,0.837-1.87,1.871
			C11.906,18.551,12.743,19.389,13.776,19.389z M36.223,30.612H13.776c-1.033,0-1.87,0.837-1.87,1.87s0.837,1.87,1.87,1.87h22.446
			c1.033,0,1.871-0.837,1.871-1.87S37.256,30.612,36.223,30.612z"/>
	</g>
</g>
</svg>
