<?xml version="1.0" encoding="utf-8"?>
<!-- Generator: Adobe Illustrator 17.0.1, SVG Export Plug-In . SVG Version: 6.00 Build 0)  -->
<!DOCTYPE svg PUBLIC "-//W3C//DTD SVG 1.1//EN" "http://www.w3.org/Graphics/SVG/1.1/DTD/svg11.dtd">
<svg version="1.1" id="Layer_1" xmlns="http://www.w3.org/2000/svg" xmlns:xlink="http://www.w3.org/1999/xlink" x="0px" y="0px"
	 width="40px" height="40px" viewBox="0 0 40 40" enable-background="new 0 0 40 40" xml:space="preserve">
<rect fill="#2CA8D2" width="40" height="40"/>
<path fill="#FFFFFF" d="M33.333,11.728c-0.982,0.435-2.035,0.73-3.143,0.862c1.13-0.676,1.996-1.75,2.404-3.027
	c-1.057,0.626-2.227,1.08-3.473,1.329c-0.998-1.064-2.418-1.73-3.995-1.73c-3.019,0-5.471,2.45-5.471,5.471
	c0,0.43,0.049,0.849,0.141,1.248c-4.545-0.229-8.576-2.406-11.277-5.715c-0.469,0.807-0.739,1.744-0.739,2.747
	c0,1.899,0.966,3.574,2.434,4.558c-0.898-0.031-1.742-0.275-2.479-0.688v0.069c0,2.653,1.886,4.864,4.386,5.366
	c-0.458,0.126-0.939,0.191-1.44,0.191c-0.35,0-0.695-0.033-1.027-0.097c0.695,2.172,2.715,3.755,5.111,3.8
	c-1.876,1.465-4.233,2.341-6.796,2.341c-0.444,0-0.878-0.025-1.308-0.076c2.424,1.553,5.302,2.459,8.39,2.459
	c10.065,0,15.565-8.337,15.565-15.567c0-0.239-0.002-0.474-0.016-0.709C31.671,13.789,32.599,12.828,33.333,11.728"/>
</svg>
