<?xml version="1.0" encoding="utf-8"?>
<!-- Generator: Adobe Illustrator 17.0.1, SVG Export Plug-In . SVG Version: 6.00 Build 0)  -->
<!DOCTYPE svg PUBLIC "-//W3C//DTD SVG 1.1//EN" "http://www.w3.org/Graphics/SVG/1.1/DTD/svg11.dtd">
<svg version="1.1" id="Layer_1" xmlns="http://www.w3.org/2000/svg" xmlns:xlink="http://www.w3.org/1999/xlink" x="0px" y="0px"
	 width="30px" height="30px" viewBox="0 0 30 30" enable-background="new 0 0 30 30" xml:space="preserve">
<g opacity="0.6">
	<g>
		<defs>
			<rect id="SVGID_1_" width="30" height="30"/>
		</defs>
		<clipPath id="SVGID_2_">
			<use xlink:href="#SVGID_1_"  overflow="visible"/>
		</clipPath>
		<path clip-path="url(#SVGID_2_)" fill="#ACC026" d="M0.004,14.999c0-8.282,6.716-14.997,14.997-14.997
			c8.282,0,14.997,6.715,14.997,14.997c0,8.282-6.715,14.996-14.997,14.996C6.72,29.995,0.004,23.281,0.004,14.999"/>
	</g>
</g>
<path fill="#FFFFFF" d="M24.205,10.312c-0.638,0.281-1.321,0.475-2.04,0.561c0.734-0.438,1.295-1.136,1.56-1.966
	c-0.684,0.407-1.446,0.702-2.253,0.863c-0.648-0.691-1.568-1.123-2.592-1.123c-1.96,0-3.551,1.59-3.551,3.55
	c0,0.279,0.031,0.551,0.09,0.811c-2.948-0.149-5.566-1.562-7.317-3.71c-0.304,0.525-0.479,1.133-0.479,1.783
	c0,1.232,0.627,2.32,1.579,2.958c-0.583-0.019-1.131-0.178-1.61-0.445v0.045c0,1.722,1.225,3.156,2.848,3.483
	c-0.299,0.082-0.61,0.124-0.935,0.124c-0.228,0-0.453-0.022-0.668-0.063c0.453,1.409,1.763,2.437,3.319,2.466
	c-1.219,0.951-2.749,1.52-4.413,1.52c-0.288,0-0.571-0.018-0.849-0.051c1.572,1.008,3.44,1.596,5.445,1.596
	c6.532,0,10.1-5.41,10.1-10.102c0-0.155,0-0.309-0.01-0.461C23.127,11.65,23.727,11.028,24.205,10.312"/>
</svg>
