<?xml version="1.0" encoding="utf-8"?>
<!-- Generator: Adobe Illustrator 17.0.1, SVG Export Plug-In . SVG Version: 6.00 Build 0)  -->
<!DOCTYPE svg PUBLIC "-//W3C//DTD SVG 1.1//EN" "http://www.w3.org/Graphics/SVG/1.1/DTD/svg11.dtd">
<svg version="1.1" id="Layer_1" xmlns="http://www.w3.org/2000/svg" xmlns:xlink="http://www.w3.org/1999/xlink" x="0px" y="0px"
	 width="21px" height="21px" viewBox="0 0 21 21" enable-background="new 0 0 21 21" xml:space="preserve">
<path fill="#FFFFFF" d="M10.5,0C4.71,0,0,4.711,0,10.5C0,16.29,4.71,21,10.5,21S21,16.29,21,10.5C21,4.711,16.29,0,10.5,0z
	 M19.455,10.5c0,2.048-0.695,3.938-1.855,5.448c-0.328-0.258-0.677-0.95-0.349-1.668c0.331-0.722,0.417-2.392,0.342-3.042
	c-0.073-0.649-0.41-2.216-1.328-2.231c-0.916-0.014-1.545-0.316-2.09-1.403c-1.13-2.262,2.122-2.696,0.991-3.949
	c-0.316-0.351-1.95,1.448-2.189-0.95c-0.016-0.17,0.148-0.427,0.367-0.693C16.892,3.204,19.455,6.557,19.455,10.5z M9.269,1.634
	c-0.214,0.416-0.779,0.586-1.123,0.9C7.399,3.211,7.078,3.117,6.674,3.767C6.269,4.416,4.96,5.352,4.96,5.822
	c0,0.469,0.661,1.024,0.991,0.916c0.33-0.108,1.201-0.103,1.714,0.077c0.513,0.182,4.281,0.362,3.081,3.548
	c-0.38,1.013-2.048,0.841-2.493,2.52c-0.066,0.245-0.296,1.297-0.313,1.641c-0.027,0.531,0.376,2.535-0.137,2.535
	c-0.515,0-1.9-1.792-1.9-2.117c0-0.324-0.36-1.464-0.36-2.439c0-0.976-1.659-0.96-1.659-2.256c0-1.17,0.9-1.751,0.697-2.311
	C4.384,7.378,2.803,7.358,2.144,7.29C3.295,4.303,6.004,2.085,9.269,1.634z M7.684,18.998c0.538-0.283,0.592-0.65,1.08-0.67
	c0.558-0.025,1.012-0.218,1.641-0.355c0.558-0.123,1.556-0.688,2.436-0.761c0.74-0.06,2.203,0.039,2.598,0.754
	c-1.417,0.94-3.115,1.49-4.938,1.49C9.516,19.456,8.57,19.294,7.684,18.998z"/>
</svg>
