<?xml version="1.0" encoding="utf-8"?>
<!-- Generator: Adobe Illustrator 17.0.1, SVG Export Plug-In . SVG Version: 6.00 Build 0)  -->
<!DOCTYPE svg PUBLIC "-//W3C//DTD SVG 1.1//EN" "http://www.w3.org/Graphics/SVG/1.1/DTD/svg11.dtd">
<svg version="1.1" id="Layer_1" xmlns="http://www.w3.org/2000/svg" xmlns:xlink="http://www.w3.org/1999/xlink" x="0px" y="0px"
	 width="156px" height="156px" viewBox="0 0 156 156" enable-background="new 0 0 156 156" xml:space="preserve">
<path opacity="0.5" fill="#5F9531" d="M78.003,0C34.987,0,0,34.984,0,77.999S34.987,156,78.006,156
	C121.015,156,156,121.014,156,77.999S121.015,0,78.003,0z M56.777,43.286c1.969-3.449,6.742-7.875,12.569-9.457
	c1.523-0.414,3.04-0.619,4.542-0.619c3.031,0,6.016,0.838,8.915,2.505c0.303,0.176,0.673,0.207,1.007,0.078
	c0.02-0.009,2.441-0.865,5.443,0.539c3.606,1.698,6.659,6.004,8.853,12.521c2.987,8.841,8.537,25.305-0.047,37.176
	c-1.425,1.971-3.664,4.641-6.645,5.084c-1.191,0.181-2.437-0.031-3.712-0.622c-0.315-0.146-0.409-1.083-0.094-1.438
	c2.257-2.544,5.843-7.337,7.031-13.147c1.851-9.057,2.388-20.559-10.006-29.22c-0.261-0.18-0.586-0.251-0.895-0.192
	c-0.318,0.063-0.59,0.247-0.762,0.514c-0.145,0.225-12.849,19.525-23.97,23.191c-0.105,0.007,0,0-0.672,0.202
	c-0.164,0.045-0.328,0.086-0.491,0.123c0.079,1.286,0.079,0.942,0.236,2.331c0.932,4.601,2.702,10.27,5.01,12.76
	c0.183,0.194,0.375,0.417,0.584,0.657c0.53,0.607,1.171,1.344,1.944,2.025c0.507,0.446,0.498,1.06,0.032,1.554
	c-1.337,1.417-3.266,2.937-5.201,2.937c-0.033,0-0.068,0-0.105-0.004c-1.818-0.049-3.53-1.457-5.093-4.179
	C49.365,78.364,47.336,59.807,56.777,43.286z M84.837,90.378c0.142,0.74,0.571,1.39,1.167,1.835
	c-2.583,1.696-5.392,2.719-8.248,2.719c-3.227,0-6.636-1.663-9.671-4.357c0.308-0.527,0.455-1.142,0.406-1.754
	c-0.063-0.81-0.46-1.57-1.086-2.084c-0.762-0.628-1.392-1.353-2.001-2.054c-0.208-0.241-0.405-0.466-0.593-0.667
	c-1.987-2.145-3.65-7.715-4.47-11.832l0-0.002h0c8.203-3.104,17.731-13.841,23.911-22.853l0.001,0.001
	c10.293,7.809,9.723,18.054,8.076,26.109c-1.115,5.467-4.722,10.091-6.774,12.362C84.931,88.495,84.662,89.458,84.837,90.378z
	 M78.008,152.781c-17.087,0-33.797-5.94-47.075-16.73c0.711-7.816,2.645-21.835,7.666-29.295c0.35-0.44,2.297-2.723,6.235-4.227
	c3.463-1.062,12.023-3.906,16.702-7.297c0.22-0.123,0.437-0.348,0.615-0.532c0.433-0.465,1.094-1.175,1.879-1.905l0.435-0.413
	l0.445,0.418c4.122,3.884,8.683,6.016,12.844,6.016c4.371,0,8.876-1.891,13.044-5.474l0.327-0.282l0.884,0.43
	c0.788,0.724,2.154,1.715,2.791,2.017l0.812,0.399l-0.083,0.086l0.359,0.221c0.772,0.465,1.607,0.915,2.587,1.396
	c0.991,0.44,1.819,0.761,2.678,1.04c0.723,0.239,4.575,1.531,8.954,3.556l0.839,0.252c4.283,1.639,6.187,3.921,6.374,4.156
	c5.084,7.538,7.033,21.604,7.759,29.439C111.796,146.841,95.088,152.781,78.008,152.781z"/>
</svg>
