<?xml version="1.0" encoding="utf-8"?>
<!-- Generator: Adobe Illustrator 17.1.0, SVG Export Plug-In . SVG Version: 6.00 Build 0)  -->
<!DOCTYPE svg PUBLIC "-//W3C//DTD SVG 1.1//EN" "http://www.w3.org/Graphics/SVG/1.1/DTD/svg11.dtd">
<svg version="1.1" id="Layer_1" xmlns="http://www.w3.org/2000/svg" xmlns:xlink="http://www.w3.org/1999/xlink" x="0px" y="0px"
	 viewBox="0 0 110 24" style="enable-background:new 0 0 110 24;" xml:space="preserve">
<style type="text/css">
	.Drop_x0020_Shadow{fill:none;}
	.Round_x0020_Corners_x0020_2_x0020_pt{fill:#FFFFFF;stroke:#000000;stroke-miterlimit:10;}
	.Live_x0020_Reflect_x0020_X{fill:none;}
	.Bevel_x0020_Soft{fill:url(#SVGID_1_);}
	.Dusk{fill:#FFFFFF;}
	.Foliage_GS{fill:#FFDD00;}
	.Pompadour_GS{fill-rule:evenodd;clip-rule:evenodd;fill:#44ADE2;}
	.st0{fill:#5F9640;}
	.st1{fill:#F79421;}
	.st2{fill:#FFFFFF;}
	.st3{fill:none;stroke:#FFFFFF;stroke-width:0.8;}
</style>
<linearGradient id="SVGID_1_" gradientUnits="userSpaceOnUse" x1="0" y1="0" x2="0.7071" y2="0.7071">
	<stop  offset="0" style="stop-color:#DEDFE3"/>
	<stop  offset="0.1738" style="stop-color:#D8D9DD"/>
	<stop  offset="0.352" style="stop-color:#C9CACD"/>
	<stop  offset="0.5323" style="stop-color:#B4B5B8"/>
	<stop  offset="0.7139" style="stop-color:#989A9C"/>
	<stop  offset="0.8949" style="stop-color:#797C7E"/>
	<stop  offset="1" style="stop-color:#656B6C"/>
</linearGradient>
<rect y="0" class="st0" width="109.645" height="24"/>
<rect x="86" y="0" class="st1" width="24" height="24"/>
<path class="st2" d="M95.311,16.536c-0.164,0.166-0.164,0.433,0,0.598c0.162,0.164,0.428,0.164,0.591,0l4.787-4.834
	c0.164-0.166,0.164-0.434,0-0.6l-4.787-4.833c-0.163-0.166-0.428-0.166-0.591,0C95.147,7.031,95.147,7.3,95.31,7.464L99.676,12
	L95.311,16.536z"/>
<path class="st3" d="M95.311,16.536c-0.164,0.166-0.164,0.433,0,0.598c0.162,0.164,0.428,0.164,0.591,0l4.787-4.834
	c0.164-0.166,0.164-0.434,0-0.6l-4.787-4.833c-0.163-0.166-0.428-0.166-0.591,0C95.147,7.031,95.147,7.3,95.31,7.464L99.676,12
	L95.311,16.536z"/>
<g>
	<path class="st2" d="M19.398,16.013V9.713h1.903l1.143,4.297l1.13-4.297h1.908v6.299H24.3v-4.959l-1.251,4.959h-1.224l-1.246-4.959
		v4.959H19.398z"/>
	<path class="st2" d="M26.457,13.666c0-0.401,0.099-0.789,0.296-1.165c0.198-0.375,0.478-0.661,0.841-0.859
		c0.363-0.197,0.767-0.296,1.214-0.296c0.69,0,1.255,0.224,1.697,0.673s0.662,1.015,0.662,1.699c0,0.691-0.223,1.262-0.668,1.716
		s-1.006,0.681-1.683,0.681c-0.418,0-0.816-0.095-1.196-0.284s-0.668-0.466-0.866-0.831C26.557,14.635,26.457,14.191,26.457,13.666z
		 M27.695,13.731c0,0.452,0.107,0.798,0.323,1.039c0.214,0.241,0.48,0.361,0.795,0.361c0.315,0,0.58-0.12,0.793-0.361
		c0.213-0.241,0.32-0.59,0.32-1.048c0-0.447-0.107-0.791-0.32-1.031c-0.213-0.241-0.478-0.361-0.793-0.361
		c-0.315,0-0.58,0.12-0.795,0.361C27.802,12.931,27.695,13.278,27.695,13.731z"/>
	<path class="st2" d="M33.267,16.013H32.06v-4.563h1.122v0.649c0.192-0.307,0.365-0.509,0.518-0.606
		c0.153-0.098,0.327-0.146,0.522-0.146c0.275,0,0.54,0.076,0.795,0.227l-0.373,1.053c-0.203-0.132-0.392-0.198-0.567-0.198
		c-0.169,0-0.312,0.047-0.43,0.14c-0.117,0.093-0.21,0.261-0.277,0.505c-0.067,0.244-0.101,0.753-0.101,1.53V16.013z"/>
	<path class="st2" d="M38.179,14.56l1.203,0.202c-0.155,0.441-0.399,0.777-0.733,1.007c-0.334,0.23-0.751,0.346-1.252,0.346
		c-0.794,0-1.38-0.259-1.762-0.778c-0.301-0.415-0.451-0.939-0.451-1.572c0-0.756,0.197-1.349,0.592-1.777s0.895-0.642,1.5-0.642
		c0.679,0,1.215,0.224,1.607,0.673c0.392,0.448,0.58,1.135,0.563,2.06h-3.025c0.008,0.358,0.105,0.637,0.292,0.836
		c0.186,0.199,0.418,0.298,0.695,0.298c0.189,0,0.348-0.052,0.477-0.155S38.114,14.789,38.179,14.56z M38.248,13.34
		c-0.009-0.349-0.099-0.615-0.271-0.797s-0.38-0.273-0.627-0.273c-0.264,0-0.481,0.095-0.653,0.288s-0.257,0.452-0.254,0.782H38.248
		z"/>
	<path class="st2" d="M42.846,16.013V9.713h1.272v6.299H42.846z"/>
	<path class="st2" d="M49.472,16.013h-1.208v-2.329c0-0.493-0.026-0.812-0.077-0.956s-0.135-0.257-0.252-0.337
		c-0.116-0.08-0.255-0.12-0.419-0.12c-0.209,0-0.397,0.057-0.563,0.172c-0.166,0.114-0.28,0.266-0.341,0.455
		c-0.062,0.189-0.092,0.539-0.092,1.048v2.067h-1.207v-4.563h1.121v0.67c0.398-0.516,0.899-0.773,1.504-0.773
		c0.266,0,0.51,0.048,0.73,0.144c0.22,0.096,0.387,0.219,0.501,0.368c0.113,0.148,0.191,0.317,0.236,0.506
		c0.045,0.189,0.067,0.46,0.067,0.812V16.013z"/>
	<path class="st2" d="M50.167,11.449h0.67v-0.344c0-0.384,0.041-0.67,0.123-0.859c0.081-0.189,0.232-0.343,0.451-0.462
		c0.22-0.119,0.497-0.178,0.831-0.178c0.344,0,0.68,0.052,1.01,0.155l-0.163,0.842c-0.192-0.046-0.377-0.069-0.555-0.069
		c-0.174,0-0.3,0.041-0.376,0.122c-0.076,0.082-0.113,0.239-0.113,0.47v0.323h0.902v0.949h-0.902v3.614h-1.208v-3.614h-0.67V11.449z
		"/>
	<path class="st2" d="M53.347,13.666c0-0.401,0.099-0.789,0.296-1.165c0.198-0.375,0.478-0.661,0.841-0.859
		c0.362-0.197,0.767-0.296,1.214-0.296c0.69,0,1.255,0.224,1.697,0.673s0.662,1.015,0.662,1.699c0,0.691-0.223,1.262-0.668,1.716
		s-1.006,0.681-1.683,0.681c-0.418,0-0.816-0.095-1.196-0.284s-0.668-0.466-0.866-0.831C53.446,14.635,53.347,14.191,53.347,13.666z
		 M54.585,13.731c0,0.452,0.107,0.798,0.323,1.039c0.214,0.241,0.48,0.361,0.795,0.361s0.58-0.12,0.793-0.361
		c0.213-0.241,0.32-0.59,0.32-1.048c0-0.447-0.107-0.791-0.32-1.031c-0.213-0.241-0.478-0.361-0.793-0.361s-0.58,0.12-0.795,0.361
		C54.692,12.931,54.585,13.278,54.585,13.731z"/>
</g>
</svg>
